<svg width="590" height="590" viewBox="0 0 590 590" fill="none" xmlns="http://www.w3.org/2000/svg">
<rect width="590" height="590" fill="#E67E22"/>
<path d="M313.233 157C311.929 157 311.339 157.651 311.443 158.954C311.537 159.279 311.445 159.605 310.972 159.931L310.493 160.419L310.216 160.908C309.555 161.559 309.07 162.263 308.749 163.023L308.085 164.327L307.615 165.792C307.048 166.986 306.529 167.853 305.991 168.396C305.141 169.373 305.141 170.35 305.991 171.327C306.964 172.303 307.933 172.303 308.915 171.327C309.671 170.567 310.323 169.48 310.871 168.069L311.729 166.281L312.578 164.488L313.546 163.184L314.69 162.046C315.54 160.96 315.938 159.931 315.825 158.954C315.636 157.651 314.797 157 313.389 157L313.233 157ZM325.28 159.765C323.977 159.765 323.272 160.416 323.168 161.718C323.168 162.153 322.879 162.699 322.19 163.35L321.341 164L320.493 164.649L319.201 165.953C318.634 166.496 318.212 166.985 317.891 167.419C317.135 168.613 317.327 169.537 318.555 170.188C319.755 170.84 320.724 170.619 321.48 169.534C321.763 168.991 322.338 168.34 323.122 167.58L324.902 165.953C326.31 164.542 327.077 163.13 327.181 161.718C327.275 160.416 326.613 159.765 325.234 159.765L325.28 159.765ZM267.8 167.013C267.328 167.013 266.852 167.258 266.37 167.746C265.397 168.723 265.345 169.7 266.186 170.677C266.374 171.002 266.656 171.491 267.034 172.142L267.32 172.953L267.791 173.608L268.261 174.096L268.925 174.746C269.492 175.18 269.684 175.616 269.59 176.05C269.59 177.352 270.242 178.004 271.527 178.004C272.944 178.004 273.701 177.352 273.815 176.05C273.909 174.639 273.247 173.279 271.859 171.976C271.387 171.542 270.921 170.838 270.401 169.861L269.737 168.723L269.073 167.746C268.601 167.258 268.227 167.013 267.735 167.013H267.8ZM336.415 168.396C336.131 168.396 335.849 168.449 335.566 168.557C332.855 169.642 330.308 171.433 327.919 173.93C326.946 174.907 326.946 175.884 327.919 176.861C328.901 177.729 329.87 177.729 330.843 176.861C332.902 174.69 334.859 173.282 336.701 172.631C337.9 172.088 338.332 171.164 338.001 169.861C337.812 168.884 337.245 168.396 336.452 168.396H336.415ZM428.442 169.7C427.97 169.809 427.595 170.024 427.142 170.35C426.858 170.784 426.572 171.272 426.477 171.815C426.477 172.358 426.664 172.846 426.948 173.28C428.138 174.583 428.958 176.537 429.392 179.142C429.487 180.119 429.575 181.258 429.669 182.561L429.863 184.188V185.653C429.863 186.196 430.046 186.684 430.518 187.118C430.99 187.444 431.465 187.607 431.985 187.607C432.551 187.607 432.955 187.444 433.276 187.118C433.748 186.684 433.94 186.196 433.94 185.653C433.846 182.288 433.654 179.578 433.276 177.515C432.615 174.476 431.497 172.086 429.872 170.35C429.4 169.915 428.925 169.7 428.405 169.7H428.442ZM162.636 170.188C161.786 170.188 161.179 170.677 160.773 171.654C160.962 171.22 160.774 171.272 159.924 171.815L159.075 172.465C158.886 172.682 158.699 172.845 158.605 172.953L156.483 175.234L154.527 177.515C153.554 178.709 152.576 180.117 151.603 181.745L150.754 183.05L150.09 184.515C149.429 185.709 148.839 186.576 148.291 187.118C147.725 187.553 147.542 188.041 147.636 188.584C147.636 189.127 147.819 189.615 148.291 190.049C148.669 190.375 149.053 190.595 149.601 190.704C150.168 190.704 150.624 190.483 151.059 190.049C151.72 189.506 152.319 188.75 152.858 187.773L153.522 186.469L154.177 185.165C155.377 183.211 156.743 181.367 158.254 179.63L159.232 178.492L160.21 177.188C160.966 176.211 161.724 175.507 162.479 175.073C163.669 174.205 164.437 173.391 164.758 172.631C165.23 171.437 164.761 170.675 163.457 170.35C163.174 170.241 162.797 170.188 162.608 170.188L162.636 170.188ZM448.451 170.35C447.884 170.458 447.481 170.674 447.16 170.999C446.687 171.433 446.491 171.922 446.302 172.465C446.302 173.007 446.498 173.496 446.781 173.93C447.348 174.581 447.348 175.884 446.781 177.838L446.302 179.142L446.025 180.119C445.742 180.987 445.554 181.586 445.554 181.911L444.89 184.026L444.226 186.141C443.754 187.77 443.571 189.182 443.571 190.376C443.571 191.679 444.229 192.33 445.674 192.33C447.091 192.33 447.734 191.679 447.63 190.376C447.63 189.182 447.909 187.607 448.599 185.653L449.447 183.211L450.425 180.607C451.729 176.374 451.509 173.228 449.761 171.165C449.478 170.623 449.008 170.35 448.46 170.35H448.451ZM253.889 176.739C253.416 176.766 252.876 177.027 252.385 177.515C251.412 178.492 251.436 179.412 252.57 180.28L254.848 182.234L257.127 184.188C258.43 185.49 259.673 186.199 260.863 186.308C262.166 186.525 262.818 185.926 262.818 184.515C262.818 183.104 262.157 182.342 260.863 182.234C260.957 182.234 260.867 182.129 260.678 181.911L260.392 181.584L260.208 181.423C259.924 181.097 259.446 180.714 258.898 180.28L255.485 177.349C254.918 176.915 254.418 176.711 253.898 176.739H253.889ZM112.443 177.676C111.877 177.676 111.42 177.787 110.986 178.004C110.514 178.329 110.226 178.708 109.999 179.142C109.904 179.685 110.001 180.226 110.285 180.768C113.317 185.002 114.833 189.671 114.833 194.772C114.833 195.424 115.025 195.912 115.497 196.238C115.78 196.564 116.35 196.726 116.964 196.726C117.53 196.726 117.934 196.564 118.264 196.238C118.737 195.912 118.929 195.424 118.929 194.772C118.929 188.802 117.245 183.429 113.883 178.653C113.599 178.111 113.03 177.785 112.416 177.676L112.443 177.676ZM178.208 178.951C177.641 179.011 177.219 179.347 176.879 179.958C175.576 180.283 174.051 181.097 172.313 182.4L170.21 184.026L168.097 185.492C164.517 187.663 162.34 190.105 161.584 192.819C161.396 193.47 161.4 194.011 161.778 194.445C161.967 194.879 162.337 195.152 162.913 195.261C163.48 195.37 163.945 195.317 164.38 195.1C164.946 194.883 165.325 194.5 165.514 193.957C165.798 192.763 166.717 191.623 168.125 190.538L169.905 189.238L171.704 188.095L173.485 186.796L175.108 185.492C176.525 184.406 177.829 183.755 179.02 183.538C179.775 183.429 180.269 182.941 180.486 182.073L180.68 181.584C180.869 180.499 180.484 179.685 179.379 179.142C179.001 178.979 178.622 178.916 178.263 178.951L178.208 178.951ZM404.679 180.812C404.396 180.785 404.114 180.826 403.83 180.934C403.358 181.043 402.979 181.369 402.686 181.911C402.497 182.346 402.398 182.834 402.493 183.377C402.587 183.92 402.97 184.35 403.47 184.676C405.964 186.196 408.573 188.964 411.284 192.98L412.419 195.1L413.553 197.376C414.403 199.113 415.242 200.473 416.007 201.45C416.479 201.884 416.945 202.099 417.465 202.099C417.937 202.099 418.321 201.884 418.775 201.45C419.058 201.124 419.335 200.688 419.43 200.146C419.524 199.494 419.431 198.953 418.959 198.519C418.487 197.976 418.012 197.105 417.492 195.911L416.837 194.611L416.358 193.307L414.734 190.704L413.11 188.261C411.155 185.331 408.609 182.941 405.463 181.096C405.18 180.933 404.898 180.84 404.614 180.812H404.679ZM305.391 183.313C302.539 183.313 299.622 183.825 296.637 184.842C295.116 185.385 293.231 185.926 290.945 186.469L285.244 188.095C280.474 189.289 276.781 190.592 274.184 192.003C272.124 193.088 271.578 194.717 272.56 196.888V198.031C270.283 200.853 268.38 206.331 266.868 214.472L266.01 219.195L265.54 221.477L265.263 223.592C264.791 226.957 264.503 229.126 264.276 230.103C260.157 247.47 255.161 269.073 249.304 294.907C242.692 324.106 232.928 357.158 220.024 394.064L219.166 394.88C217.872 395.965 217.546 397.268 218.198 398.787C219.048 401.284 220.855 404.215 223.576 407.58C224.549 408.665 225.791 409.968 227.312 411.487L228.935 413.441L230.568 415.068C237.719 422.666 244.284 428.365 250.254 432.164C250.821 432.489 251.392 432.704 252.044 432.813C252.611 433.031 253.129 433.14 253.667 433.14C256.596 433.466 260.173 432.867 264.405 431.348C266.247 430.805 268.362 430.316 270.752 429.882L274.017 429.56L277.421 429.071C278.621 428.962 280.031 428.689 281.656 428.255L285.89 426.79C289.366 425.705 292.177 425.164 294.349 425.164C296.73 425.164 298.034 423.966 298.251 421.578C298.913 421.036 299.282 420.442 299.395 419.79C301.237 412.518 303.414 404.157 305.908 394.713L312.734 369.64C318.591 348.365 322.936 331.595 325.751 319.329C327.385 312.056 330.037 302.287 333.721 290.021L338.121 275.529C339.756 269.993 341.103 265.108 342.189 260.875L343.813 254.852L345.446 248.502C346.74 243.618 347.939 239.332 349.016 235.641C352.058 225.872 355.265 217.784 358.628 211.38C359.478 209.751 359.291 208.233 358.158 206.822C357.969 205.845 357.394 205.031 356.525 204.38C343.187 194.828 327.837 187.989 310.474 183.865C308.812 183.498 307.12 183.313 305.41 183.313L305.391 183.313ZM482.602 184.959C482.413 184.963 482.32 184.976 482.131 185.004C480.941 185.221 479.733 185.657 478.543 186.308C477.787 186.742 476.765 187.393 475.462 188.262L473.995 189.561L472.362 190.865C471.172 191.842 470.035 192.383 468.949 192.492C467.645 192.492 466.993 193.201 466.993 194.612C466.993 195.914 467.655 196.566 468.949 196.566C471.008 196.566 473.396 195.426 476.107 193.146L477.731 191.842L479.354 190.538C480.658 189.67 481.91 189.129 483.1 188.911C484.403 188.694 484.897 187.933 484.567 186.63C484.283 185.491 483.622 184.936 482.592 184.96L482.602 184.959ZM96.0877 187.255C95.9932 187.248 95.8039 187.257 95.7095 187.284C95.1427 187.284 94.6772 187.447 94.2427 187.773C93.9593 188.207 93.673 188.696 93.5785 189.238C93.5785 189.781 93.7704 190.27 94.2427 190.704L97.4991 193.796L100.765 196.888L101.89 198.192L103.025 199.496L103.689 200.146L104.353 200.795C104.92 201.229 105.199 201.665 105.331 202.099C105.52 202.751 105.899 203.187 106.466 203.404C106.938 203.621 107.413 203.621 107.932 203.404C108.499 203.295 108.912 203.022 109.233 202.588C109.517 202.154 109.616 201.665 109.427 201.123C109.143 200.037 108.453 199.008 107.48 198.031L106.17 196.565L104.87 195.261C103.897 194.284 102.645 193.034 101.134 191.515L97.2223 187.773C96.939 187.447 96.5582 187.276 96.1615 187.255H96.0877ZM245.799 187.729C245.421 187.729 245.04 187.851 244.728 188.095C244.256 188.421 243.977 188.857 243.76 189.399C243.665 189.942 243.755 190.431 243.944 190.865C244.133 191.299 244.612 191.572 245.254 191.681C246.01 191.898 246.821 192.276 247.69 192.819L248.834 193.796L249.802 194.611C251.644 196.24 253.274 197.159 254.691 197.376C255.995 197.485 256.638 196.833 256.638 195.422C256.638 194.011 255.976 193.255 254.691 193.146C254.219 193.146 253.605 192.763 252.736 192.003L251.887 191.026C251.604 190.7 251.312 190.485 251.029 190.376C249.187 188.965 247.557 188.099 246.149 187.773C246.055 187.746 245.865 187.729 245.771 187.729L245.799 187.729ZM303.113 192.775C316.045 192.573 329.73 196.984 344.154 206.007C341.339 206.441 338.184 207.04 334.717 207.8C332.649 206.497 330.049 205.3 326.904 204.215L322.836 202.915L318.767 201.611C315.726 200.634 312.21 199.279 308.196 197.542L302.827 195.422L297.615 193.146C299.438 192.929 301.271 192.804 303.113 192.775V192.775ZM291.434 194.284C291.529 194.935 291.902 195.477 292.403 195.911C293.064 196.236 293.707 196.294 294.358 196.077L303.962 199.984L313.731 204.053C315.138 204.705 317.526 205.571 320.889 206.657L324.791 207.961L328.527 209.426L323.168 211.053C321.43 209.859 319.799 210.022 318.279 211.541C316.654 210.999 314.759 209.916 312.587 208.288L309.985 206.334C309.003 205.574 308.087 204.976 307.218 204.542L302.984 202.427C301.349 201.558 299.887 200.849 298.593 200.307L296.48 199.496L294.202 198.68C292.35 198.137 290.94 197.596 289.967 197.054C288.994 196.619 287.743 196.184 286.231 195.75C287.743 195.207 289.479 194.718 291.434 194.284V194.284ZM491.587 195.73C491.209 195.715 490.83 195.833 490.434 196.077C489.867 196.511 489.19 196.942 488.321 197.376L486.033 198.353C483.974 199.113 482.468 199.874 481.485 200.634C479.209 202.262 476.6 204.542 473.672 207.473C472.699 208.341 472.699 209.265 473.672 210.242C474.654 211.219 475.623 211.272 476.596 210.403C479.742 207.255 482.413 204.976 484.576 203.565L486.531 202.427L488.487 201.611C490.329 200.851 491.686 200.2 492.555 199.657C493.642 198.897 493.852 197.973 493.22 196.888C492.747 196.141 492.21 195.755 491.605 195.73L491.587 195.73ZM190.624 196.057C189.963 196.083 189.49 196.469 189.084 197.215C188.989 197.323 188.707 197.434 188.235 197.542L187.571 197.703L187.101 197.864C186.128 198.299 184.823 199.007 183.198 199.984L181.4 201.284L179.776 202.427C178.368 203.295 177.064 203.726 175.874 203.726C175.213 203.617 174.676 203.78 174.241 204.214C173.958 204.649 173.771 205.137 173.771 205.68C173.771 206.223 173.958 206.711 174.241 207.145C174.713 207.579 175.222 207.8 175.874 207.8C177.395 207.8 178.963 207.364 180.588 206.496L182.709 205.357L184.822 203.892C186.229 203.024 187.966 202.152 190.025 201.284C191.328 200.741 192.201 200.037 192.635 199.169C193.297 198.083 193.015 197.159 191.787 196.399C191.314 196.155 190.938 196.042 190.56 196.057H190.624ZM280.041 202.427L282.32 202.915L284.765 203.565C286.059 203.999 287.795 204.703 289.967 205.68L292.569 206.984L293.869 207.634L295.013 208.288L297.781 209.426L300.714 210.731C303.208 211.816 305.05 212.793 306.24 213.661L308.03 214.961L309.653 216.104C310.957 217.081 312.103 217.784 313.076 218.219L312.412 219.523C311.221 219.414 309.979 218.868 308.675 217.891L307.052 216.753L305.253 215.449C304.167 214.906 302.862 214.365 301.351 213.822L299.238 213.173L297.117 212.518L292.237 210.892L287.034 209.099C283.019 207.688 279.768 206.333 277.265 205.03C277.643 204.162 277.83 203.673 278.113 203.565C278.869 203.456 279.521 203.078 280.069 202.427H280.041ZM85.6082 202.915C84.6352 202.997 83.7629 203.322 82.9883 203.892C82.4216 204.326 82.1396 204.815 82.1396 205.357C82.0452 205.9 82.1444 206.389 82.3334 206.823C82.6167 207.366 82.9957 207.691 83.468 207.8C84.0348 207.908 84.5624 207.798 85.1008 207.473C85.951 206.821 87.2121 206.931 88.8369 207.8L90.7926 208.938L91.6413 209.588L92.4992 210.076L93.7999 210.892L95.2667 211.707C96.4569 212.359 97.5409 212.627 98.5138 212.518C99.8174 212.41 100.47 211.706 100.47 210.403C100.47 208.992 99.808 208.341 98.5138 208.449C97.6637 208.558 96.3933 208.07 94.7685 206.984L92.8128 205.68C92.1516 205.137 91.6859 204.759 91.3553 204.542C89.1921 203.321 87.2881 202.78 85.6728 202.915H85.6082ZM275.973 208.938C278.259 210.132 281.184 211.324 284.765 212.518L289.322 214.15L293.713 215.615L296.969 216.753L299.903 217.891C302.179 218.76 304.117 219.737 305.751 220.822C307.593 222.233 309.224 223.105 310.631 223.431L309.653 225.546C307.056 225.003 304.121 224.079 300.871 222.776L296.637 220.822L292.403 218.868C284.921 215.286 279.176 213.117 275.161 212.357C275.445 211.055 275.727 209.915 276.01 208.938H275.973ZM348.545 213.661C346.703 218.003 344.809 223.702 342.854 230.757L340.409 239.384L337.808 248.015C330.969 269.507 324.73 290.999 319.09 312.491L312.264 338.38L305.262 364.268C299.727 385 295.233 402.312 291.757 416.206L291.563 416.533V417.182C288.635 417.4 284.626 418.376 279.525 420.113C278.221 420.547 276.432 420.873 274.156 421.09L271.388 421.256L268.621 421.579C267.431 421.796 266.083 422.179 264.562 422.722L260.807 424.021C264.066 415.88 267.371 406.436 270.733 395.69C271.706 395.69 272.358 395.259 272.689 394.391C272.878 393.414 272.695 392.6 272.034 391.949C274.207 384.785 277.176 374.47 280.973 361.01L285.373 345.706L289.93 330.237L294.165 316.56L298.233 302.883C301.161 292.571 303.54 283.29 305.382 275.041L306.849 268.53L308.15 261.852C309.34 256.642 310.548 252.246 311.738 248.664C312.021 247.361 312.678 245.192 313.528 242.153L314.506 238.406L315.64 234.499C317.596 228.094 319.605 223.373 321.664 220.333C331.857 216.643 340.81 214.421 348.509 213.661L348.545 213.661ZM203.53 214.653C202.415 214.67 201.446 215.154 200.633 216.104H200.449L200.163 216.265H199.877L199.692 216.426H199.407C197.678 216.86 195.668 217.837 193.392 219.357C192.92 217.294 191.706 216.428 189.647 216.753C163.282 220.01 127.7 230.646 82.9053 248.664C66.96 255.068 53.6718 262.343 43.0353 270.484C42.1851 271.135 40.9242 272.059 39.29 273.253L35.2218 276.184C31.8589 278.681 29.1013 280.85 26.9286 282.695C20.524 288.231 16.2418 293.494 14.0691 298.487C12.9828 298.704 12.1722 299.25 11.6337 300.119L10.0102 306.957C9.9157 310.105 10.4813 314.606 11.6337 320.468L12.9345 327.145C13.2178 329.75 13.4142 332.03 13.4142 333.983C13.4142 335.612 14.0721 336.804 15.5174 337.564C68.5678 365.243 112.283 387.171 146.668 403.345C145.147 405.299 145.367 407.142 147.332 408.879C149.174 410.616 150.972 410.563 152.701 408.717C155.629 405.678 159.859 402.584 165.394 399.437L168.808 397.483L172.221 395.529C174.724 393.901 176.892 392.435 178.734 391.133C181.01 389.396 183.998 386.738 187.682 383.156L192.082 379.083L196.63 375.175C197.83 374.198 198.261 373.005 197.931 371.594C197.647 370.4 196.799 369.476 195.495 368.825C195.212 366.98 195.025 364.758 195.025 362.152V355.314C195.025 354.554 195.029 353.52 194.84 352.217L194.361 348.798C194.172 346.193 194.368 344.186 195.218 342.775C195.407 342.341 195.594 341.853 195.689 341.31C196.35 340.333 196.632 339.356 196.538 338.379C196.349 337.294 195.596 336.427 194.425 335.776C186.178 331.434 174.027 326.061 157.978 319.656C156.561 319.114 154.614 318.3 152.12 317.214L145.93 314.445C140.829 312.165 136.556 310.59 133.08 309.721C142.951 307.767 150.211 305.162 154.878 301.906C155.851 301.797 156.618 301.472 157.156 300.929C163.665 295.176 171.693 288.936 181.243 282.206C182.867 281.121 184.93 279.928 187.423 278.626L190.837 276.833L194.102 275.041C199.628 272.218 203.638 269.561 206.131 267.064C207.974 265.002 207.876 262.995 205.855 261.041C206.516 260.281 206.823 259.41 206.823 258.433V253.226L206.639 248.014C206.639 243.889 206.727 240.36 206.916 237.429L207.109 233.688L207.764 233.199L208.622 232.872C209.472 232.221 209.702 231.354 209.277 230.268C208.805 229.183 208.138 228.747 207.165 228.964C207.165 225.057 207.447 222.016 208.013 219.845C208.675 217.674 208.017 216.103 205.901 215.126C205.145 214.801 204.403 214.642 203.742 214.652L203.53 214.653ZM492.887 215.063C492.51 215.078 492.131 215.205 491.734 215.449C490.657 216.209 490.437 217.133 491.07 218.219C491.353 218.653 491.732 219.141 492.205 219.684C492.866 220.444 493.729 220.554 494.815 220.011C495.382 219.794 496.112 219.684 497.094 219.684L498.219 219.845H499.363L500.212 219.684H501.347C502.197 219.575 502.824 219.686 503.145 220.011C503.996 220.88 504.94 220.822 505.913 219.845C506.886 218.868 506.938 217.949 506.097 217.08C505.342 216.321 504.363 215.885 503.173 215.776L501.55 215.615L499.926 215.776L497.159 215.615C496.072 215.615 495.2 215.72 494.548 215.937C494.076 215.327 493.538 215.038 492.934 215.063L492.887 215.063ZM274.184 216.426C276.46 216.86 279.069 217.784 281.997 219.196L285.899 220.988L289.635 222.776C290.835 223.319 292.35 223.807 294.202 224.241L296.637 224.896L298.915 225.707L301.36 226.522L303.639 227.661C305.594 228.529 307.109 229.128 308.196 229.453C307.44 231.841 306.567 234.772 305.594 238.245C305.5 237.486 305.03 236.997 304.294 236.78C302.225 236.129 299.564 234.826 296.314 232.872L292.569 230.591C291.057 229.723 289.7 229.019 288.51 228.476C287.66 228.151 286.389 227.772 284.765 227.338L280.53 226.195C277.054 225.218 274.455 224.189 272.717 223.103C273.284 220.607 273.749 218.38 274.184 216.426V216.426ZM435.047 218.395C434.575 218.4 434.099 218.504 433.645 218.707L432.99 218.868C431.687 218.325 430.435 218.436 429.245 219.195C427.837 220.064 427.185 221.256 427.289 222.776L425.177 224.241C421.7 226.521 416.766 230.05 410.371 234.826L404.347 239.222L398.166 243.78C392.735 247.687 388.673 250.618 385.962 252.572L385.491 253.061C383.536 253.603 382.567 254.853 382.567 256.807C382.567 263.211 383.033 270.648 384.024 279.115C384.119 280.418 384.119 282.261 384.024 284.649V287.419L384.218 290.35C384.218 290.783 384.306 291.377 384.495 292.137L384.781 294.257C385.064 295.885 384.967 297.13 384.495 297.999C383.191 299.953 383.517 301.638 385.473 303.05C387.428 304.461 389.217 304.461 390.842 303.05C412.87 310.756 434.785 319.654 456.587 329.749L453.488 330.076C451.646 330.293 449.31 330.456 446.495 330.564H442.741H439.005C432.931 330.564 428.164 331.163 424.688 332.357C417.641 334.854 410.045 340.495 401.911 349.287L397.022 354.826L392.142 360.36C388.241 364.811 384.99 368.177 382.382 370.457C380.427 371.326 379.616 372.791 379.947 374.853C378.53 375.613 377.878 376.805 377.991 378.433C378.086 380.062 378.934 381.254 380.427 382.014C380.427 383.751 380.614 385.815 380.897 388.203L381.561 394.391C382.223 399.602 382.41 403.777 382.032 406.925C382.032 407.902 382.51 408.826 383.342 409.695C384.192 410.563 385.18 410.999 386.266 410.999C396.903 410.565 410.243 407.471 426.302 401.718L436.219 397.972L446.145 394.064C454.609 390.699 460.847 388.31 464.862 386.898C469.529 385.162 474.833 383.371 480.803 381.525L496.753 376.641C510.639 372.407 521.266 368.936 528.643 366.222H528.828C529.489 366.331 530.131 366.331 530.783 366.222C534.902 365.245 539.352 362.041 544.122 356.614L546.89 353.195L549.648 349.776C551.934 347.062 553.723 345.055 555.026 343.753C559.041 339.954 563.323 335.232 567.877 329.587C569.397 327.742 570.587 326.224 571.456 325.03C572.759 323.185 573.781 321.499 574.546 319.979C576.284 319.437 577.157 318.192 577.157 316.238V306.791L578.292 305.814L579.269 305.003C580.12 304.243 580.245 303.372 579.555 302.395C578.894 301.526 578.093 301.258 577.12 301.584V286.93C577.687 285.845 577.687 284.705 577.12 283.511C576.553 282.208 575.709 281.394 574.509 281.069H574.039L573.568 280.902H573.098C571.794 279.491 570.111 279.276 568.052 280.253C567.296 279.71 566.212 279.006 564.795 278.138L563.006 277.322L561.539 276.345L557.148 273.576L552.914 270.811C549.23 268.423 546.41 266.574 544.455 265.272C540.119 262.667 534.911 259.956 528.837 257.134L520.857 253.549L512.896 249.968C502.26 245.301 490.055 240.253 476.283 234.826C474.223 234.066 468.522 232.112 459.189 228.965C449.969 225.925 443.087 223.756 438.534 222.453C438.44 221.042 437.965 219.955 437.068 219.195C436.406 218.653 435.784 218.386 435.047 218.394V218.395ZM199.01 225.218V229.292L198.825 233.361L196.058 234.826L192.958 236.453C190.578 237.755 188.401 238.953 186.455 240.038C181.24 242.969 176.79 245.517 173.106 247.687C163.122 253.657 158.681 257.35 159.758 258.761C159.475 258.327 158.914 258.054 158.3 257.945C157.734 257.945 157.268 258.056 156.834 258.272C156.834 255.667 157.116 253.44 157.682 251.595C158.532 251.161 159.045 250.404 159.149 249.319C160.349 248.45 162.075 247.473 164.361 246.388L166.963 245.245C167.936 244.811 168.641 244.433 169.075 244.107C170.927 243.021 173.094 241.666 175.588 240.038L182.091 235.642C182.753 235.208 183.942 234.393 185.671 233.199L187.792 231.895L190.062 230.43C193.642 227.933 196.629 226.195 199.019 225.218L199.01 225.218ZM182.894 225.873L179.158 228.149L175.579 230.43C174.171 231.299 172.215 232.386 169.721 233.688L166.63 235.315L163.374 236.941C158.065 239.655 154.205 242.26 151.815 244.757L149.223 245.411L146.456 246.222C154.693 239.492 162.773 233.903 170.689 229.453C171.256 229.127 171.544 228.639 171.676 227.988C175.908 227.119 179.644 226.415 182.894 225.873V225.873ZM271.905 227.172C273.312 227.932 275.331 228.693 277.929 229.453L281.019 230.269L283.787 231.08C285.308 231.623 286.981 232.384 288.823 233.361L293.547 235.964C297.561 238.352 300.769 239.928 303.15 240.688C303.905 240.905 304.567 240.745 305.105 240.199L303.795 244.923L302.67 249.319C301.584 247.256 299.354 245.628 295.991 244.434L293.869 243.618L291.757 242.969C290.132 242.426 288.828 241.88 287.855 241.337C282.102 238.19 276.621 235.259 271.416 232.545L270.946 232.057L271.905 227.172ZM433.156 228.965C434.139 229.508 435.433 229.996 437.068 230.43L433.156 233.2L429.088 235.964C425.725 238.135 423.126 239.984 421.275 241.504C419.98 242.48 418.403 243.888 416.561 245.734L414.125 248.176L411.515 250.457C407.396 254.256 403.819 256.646 400.777 257.623C399.69 257.949 399.206 258.705 399.31 259.899C399.499 261.093 400.161 261.692 401.266 261.692H401.736C402.303 261.692 402.725 261.529 403.046 261.203C405.871 260.009 409.069 257.782 412.649 254.526L417.04 250.296C418.778 248.667 420.241 247.417 421.431 246.549C423.708 244.704 427.127 242.209 431.68 239.061L436.892 235.476L442.095 231.734L445.029 232.384L447.796 233.033C449.855 233.468 451.265 233.793 452.021 234.01L464.226 238.573C463.375 238.246 462.599 238.352 461.947 238.895C459.236 241.5 455.659 244.268 451.209 247.199L445.195 250.945L439.162 254.526C429.404 260.713 422.742 266.847 419.162 272.926L418.968 273.575C416.257 272.273 413.217 270.644 409.854 268.691C412.027 266.194 415.331 263.426 419.78 260.387L425.306 256.645C427.478 255.234 429.214 254.037 430.518 253.06L435.407 249.152L440.278 245.411C444.075 242.588 447.556 240.362 450.702 238.733C451.269 238.516 451.548 238.138 451.671 237.595C451.765 237.053 451.675 236.564 451.486 236.13C451.203 235.587 450.824 235.261 450.342 235.153C449.775 234.936 449.204 234.936 448.553 235.153C445.294 236.89 441.496 239.437 437.16 242.802L431.625 247.037C429.566 248.665 427.724 250.021 426.099 251.106L421.044 254.691L415.684 258.272C411.67 261.203 408.524 264.023 406.247 266.737C401.363 263.806 396.755 260.875 392.419 257.945L402.502 250.784C406.734 247.853 410.1 245.411 412.594 243.457L416.016 240.687L419.586 237.918C422.411 235.747 424.799 234.013 426.745 232.711L428.212 231.895L429.678 231.079C430.973 230.428 432.004 229.834 432.769 229.291L433.156 228.965ZM161.096 230.43C153.18 235.532 145.09 241.772 136.852 249.153L133.928 249.968L134.897 249.153L135.746 248.342C138.022 246.388 140.693 244.161 143.725 241.665L152.027 235.315C152.878 234.555 152.968 233.741 152.212 232.872L161.096 230.43ZM146.456 234.499L139.454 239.872C136.96 241.826 134.73 243.674 132.784 245.411C130.394 247.582 127.575 250.293 124.316 253.549C119.649 255.394 115.041 257.243 110.488 259.088L116.346 253.06L117.969 251.273L119.768 249.319C121.393 247.691 122.75 246.388 123.827 245.411C127.086 242.155 129.958 239.981 132.461 238.895C136.797 237.376 141.459 235.91 146.456 234.499V234.499ZM269.949 236.292L276.462 239.55C278.956 240.852 281.027 241.992 282.652 242.969C285.58 244.706 287.854 245.951 289.478 246.71C289.951 246.928 290.723 247.201 291.923 247.526L293.224 248.015L294.681 248.504C297.071 249.372 298.596 250.349 299.248 251.434C299.531 251.977 300.001 252.303 300.539 252.411C301.106 252.52 301.571 252.355 302.006 251.923V252.083C301.156 255.34 300.159 259.41 299.072 264.295L298.796 264.134C296.736 263.483 294.022 261.965 290.659 259.577L286.748 256.646C285.236 255.56 283.879 254.746 282.689 254.204C281.839 253.77 280.674 253.281 279.266 252.738L275.364 251.273C272.001 249.97 269.455 248.831 267.717 247.854C268.567 243.62 269.344 239.765 269.995 236.292L269.949 236.292ZM198.521 238.246C198.332 241.285 198.233 245.03 198.327 249.48C196.051 250.131 193.284 251.434 190.025 253.388L186.123 255.83C184.498 256.915 183.256 257.677 182.387 258.111C172.185 263.973 163.831 269.183 157.323 273.742V271.3C157.323 270.214 157.327 268.691 157.138 266.737L156.852 261.692C157.513 262.343 158.156 262.558 158.808 262.341C162.067 261.147 165.908 258.867 170.357 255.502L175.892 251.272C178.169 249.644 180.02 248.342 181.427 247.365C183.704 245.845 186.524 244.217 189.886 242.48L194.277 240.36L198.521 238.246ZM464.235 238.573L472.205 241.665C469.494 244.053 466.084 246.873 461.956 250.13L456.597 254.203L451.219 258.111C446.769 261.693 443.192 264.624 440.481 266.903C439.82 267.554 439.009 268.369 438.036 269.345L435.601 271.949C433.532 274.12 431.691 275.533 430.066 276.184C428.98 276.509 428.504 277.266 428.608 278.46L422.418 275.368L422.704 275.041C424.764 271.568 428.015 268.148 432.464 264.784L435.398 262.668L438.322 260.715C440.92 258.978 442.876 257.623 444.18 256.646C445.587 255.56 447.314 254.363 449.383 253.06L454.752 249.48C459.088 246.658 462.463 244.105 464.844 241.826C465.41 241.283 465.598 240.689 465.314 240.038C465.22 239.387 464.841 238.898 464.17 238.573L464.235 238.573ZM120.903 242.803L119.113 244.756L117.333 246.388C115.377 248.342 112.548 251.162 108.864 254.853L104.796 259.088L100.562 263.318L91.4568 267.064L100.239 259.249C103.488 256.21 106.318 253.494 108.698 251.106C109.359 250.455 109.542 249.804 109.353 249.153C109.164 248.501 108.694 248.013 108.062 247.687L120.903 242.803ZM475.784 243.13L486.531 247.526H486.338C479.291 251.325 471.527 257.024 463.073 264.622L457.694 269.506L452.335 274.552C447.668 278.894 444.091 282.15 441.597 284.321L431.662 279.764C433.4 279.004 435.567 277.376 438.175 274.879C441.103 271.949 445.28 268.314 450.711 263.972L456.883 259.249L463.073 254.525C468.06 250.618 472.079 247.309 475.111 244.595C475.583 244.161 475.766 243.673 475.766 243.13H475.784ZM489.299 248.664L498.238 252.572L502.638 254.364L506.863 256.318L515.821 260.226C522.867 263.265 528.886 266.086 533.883 268.691L533.219 269.179C527.249 275.041 519.768 281.448 510.765 288.395L505.719 291.976L500.516 295.722C496.388 298.653 493.243 301.311 491.079 303.699L478.875 299.142L480.498 297.998L481.965 296.86C483.155 296.1 483.966 295.449 484.401 294.907C485.704 293.604 487.387 291.976 489.447 290.022L494.649 285.299L500.184 279.926L505.719 274.552L508.653 272.11L511.743 269.668C514.454 267.714 516.411 265.981 517.601 264.461C518.073 264.027 518.166 263.481 518.071 262.829C518.071 262.396 517.88 261.965 517.407 261.53C516.935 261.096 516.56 260.876 516.106 260.876C515.54 260.876 515.074 261.096 514.64 261.53C513.449 263.05 511.555 264.783 508.948 266.737L505.692 269.179C504.501 270.156 503.523 270.97 502.767 271.622L499.188 275.041L495.766 278.626C492.837 281.448 490.459 283.67 488.607 285.299L485.517 288.068L482.592 291.16C480.099 293.548 477.984 295.286 476.246 296.372L475.259 296.861L474.41 297.349L462.86 292.953C464.806 290.891 467.406 288.501 470.655 285.787L474.733 282.368L478.469 279.115C482.814 275.533 486.497 272.602 489.539 270.323C493.771 267.175 497.736 264.675 501.42 262.83C502.611 262.179 502.822 261.259 502.075 260.065C501.414 258.871 500.508 258.598 499.308 259.249C493.017 262.506 485.104 268.205 475.554 276.346L471.32 279.765L467.095 283.511C463.732 286.442 460.965 289.047 458.792 291.327L445.776 285.954L450.822 281.391L455.868 276.673C460.317 272.548 463.736 269.397 466.117 267.226C474.25 260.17 481.678 254.797 488.404 251.107C489.377 250.564 489.659 249.75 489.262 248.665L489.299 248.664ZM105.285 248.83C102.357 251.653 98.3382 255.397 93.2372 260.065L87.0657 265.438L81.0327 270.972C78.2082 272.058 75.2393 273.25 72.0937 274.553C72.755 273.793 73.6615 272.816 74.8612 271.622L76.3187 270.156L77.6194 268.691C78.923 267.063 80.6589 265.219 82.8315 263.157L83.4957 262.507L84.1507 261.852L85.6174 260.387C86.8077 259.302 87.8387 258.65 88.7078 258.433C89.5579 258.216 90.0612 257.727 90.1745 256.968C90.269 256.208 90.0771 255.557 89.5103 255.014L105.285 248.83ZM266.868 251.922C268.493 252.791 270.881 253.82 274.027 255.014L277.431 256.318C278.63 256.861 279.661 257.35 280.53 257.784C281.824 258.435 283.287 259.302 284.921 260.387L288.999 263.318C292.466 265.815 295.338 267.39 297.615 268.041L298.27 268.202L295.991 278.46C295.018 278.242 293.925 277.486 292.735 276.184L291.434 274.391L290.133 272.926C287.961 270.755 285.635 268.748 283.141 266.903C279.995 264.623 275.157 262.344 268.649 260.064C268.365 259.087 267.675 258.599 266.702 258.599H265.558C265.653 257.839 265.845 256.805 266.222 255.502L266.508 253.876L266.868 251.922ZM148.9 253.876C148.806 255.83 148.806 258.272 148.9 261.203L149.085 264.949V268.369L149.278 274.064L149.564 279.926C149.848 284.81 150.03 288.613 149.841 291.326V291.815C149.841 292.792 150.123 293.606 150.69 294.257C148.734 295.343 145.809 296.588 141.899 297.999C140.708 298.433 139.246 298.921 137.507 299.464L135.718 299.953C135.057 300.17 134.634 300.333 134.417 300.442C130.733 301.636 125.693 302.723 119.288 303.7L111.641 304.838C108.703 305.38 106.157 305.926 103.993 306.469C101.282 307.12 97.6427 308.203 93.0896 309.722L87.2318 311.676L81.2171 313.63C71.4497 316.669 63.5805 318.298 57.6199 318.515C55.8817 317.321 54.3571 317.594 53.0535 319.33L52.5831 319.98L52.2971 320.468C50.4551 321.011 49.5389 322.314 49.5389 324.376C49.4444 326.547 50.3942 327.849 52.4724 328.284C57.3467 329.369 64.0267 332.195 72.4812 336.754L77.5272 339.357L82.564 342.127C86.3614 344.08 89.6126 345.546 92.3331 346.523C95.696 347.825 100.031 349.07 105.349 350.264L112.508 351.896L119.667 353.522C131.711 356.128 140.601 359.168 146.354 362.642C145.693 363.619 145.51 364.596 145.699 365.573C143.857 372.737 143.689 382.07 145.229 393.576L113.652 378.273L81.9275 362.803C79.4336 361.609 76.1293 360.196 72.0107 358.568L66.6326 356.292L60.9316 354.011C51.2775 350.103 43.7435 346.574 38.3214 343.426C21.8376 333.657 15.0521 321.608 17.9805 307.28C19.8225 306.737 22.105 305.708 24.8161 304.188L27.8972 302.234L31.1629 300.608C37.3502 297.351 45.2629 293.769 54.917 289.862L67.2876 285.138L73.4682 282.857L79.4921 280.415C83.5068 278.787 89.7892 276.181 98.357 272.599L107.96 268.53L117.729 264.462C118.485 264.788 119.19 264.677 119.842 264.135L120.312 263.485C131.27 259.252 140.813 256.048 148.956 253.877L148.9 253.876ZM198.364 253.876V258.433C198.364 259.302 198.643 260.116 199.333 260.876C198.577 261.31 197.766 262.124 196.897 263.318L196.611 263.807L193.364 265.599L189.942 267.226C189.469 266.249 188.75 265.871 187.663 266.088C186.577 266.414 185.388 267.012 184.084 267.88L182.46 269.019L180.837 270.157C176.388 272.979 172.643 275.153 169.601 276.673L168.3 277.322L166.833 277.971C165.426 278.623 164.342 279.111 163.577 279.437C160.866 280.848 158.981 282.261 157.894 283.672L157.609 278.46L158.457 278.138C165.183 273.253 172.999 268.258 181.898 263.157C182.871 262.614 184.175 261.852 185.8 260.875L189.868 258.272C193.335 256.101 196.217 254.636 198.493 253.876L198.364 253.876ZM81.8537 258.111C81.098 258.871 80.1633 259.848 79.077 261.042L77.7855 262.341L76.6416 263.645L73.7173 266.737L70.9498 269.834C70.0997 270.594 69.1648 271.786 68.1824 273.414L66.8724 275.207L65.4149 276.995L65.1289 277.649L58.6254 280.414L51.9558 283.183C56.5089 277.213 61.9809 270.916 68.3761 264.294C71.8523 262.449 76.3645 260.39 81.8906 258.111L81.8537 258.111ZM264.746 262.996L264.94 263.156C273.839 266.196 280.552 269.778 285.115 273.902C285.682 274.445 286.421 275.207 287.394 276.184L289.672 278.787C291.524 280.849 293.25 282.099 294.875 282.533H295.152L293.205 290.998C292.015 289.479 290.217 287.903 287.836 286.275C286.986 285.624 285.989 284.973 284.903 284.321L283.445 283.51L282.135 282.856L277.099 280.253L272.209 277.972C267.874 276.018 264.569 274.39 262.293 273.087L264.396 264.295C264.396 264.077 264.493 263.646 264.682 262.995L264.746 262.996ZM391.174 267.064C410.916 280.416 430.822 290.889 450.896 298.487C455.553 300.224 461.686 302.451 469.281 305.164L487.675 311.675C501.996 316.994 514.023 321.989 523.791 326.657C524.074 326.874 524.453 327.089 524.925 327.306V332.19L525.119 337.241V356.452C523.173 356.886 522.08 358.079 521.863 360.033C511.236 363.723 498.599 367.904 483.958 372.571L464.918 378.433L445.877 384.294C442.297 385.38 438.288 386.682 433.839 388.202L421.8 392.437C411.929 396.019 403.901 398.624 397.714 400.252C393.378 401.446 391.158 402.04 391.045 402.04C390.761 401.931 390.388 399.384 390.076 394.391C390.076 393.631 389.979 392.654 389.79 391.46L389.319 388.202C388.847 385.271 388.655 383.045 388.655 381.525L391.266 380.548L393.867 379.249C396.031 378.272 397.608 377.62 398.581 377.295L415.5 372.244C422.008 370.29 427.657 368.557 432.427 367.037C435.677 365.952 440.462 364.539 446.754 362.802L454.392 360.687L462.039 358.567C474.301 354.877 483.465 350.701 489.539 346.033L489.825 345.867L490.018 346.033C492.399 347.227 494.241 346.629 495.544 344.241C496.961 341.961 496.486 340.17 494.077 338.868C489.194 336.263 483.396 333.332 476.67 330.075L476.476 329.748L476.006 329.426C475.156 328.666 474.168 328.283 473.082 328.283C447.265 315.8 420.635 304.786 393.194 295.234L393 292.792L392.714 290.183C392.431 288.121 392.244 286.55 392.244 285.465C392.338 282.86 392.248 279.766 392.059 276.184L391.174 267.064ZM536.65 269.995L540.396 272.11L544.289 274.064C541.908 275.475 539.203 277.865 536.161 281.23L532.582 285.465C531.175 286.984 529.976 288.229 529.003 289.206C527.161 290.943 524.763 292.954 521.835 295.234L518.099 297.999L514.354 300.768C513.787 301.202 512.995 301.906 511.909 302.883L509.151 305.164C506.874 307.01 504.918 308.097 503.293 308.422L503.016 308.583L495.203 305.325C497.479 303.154 500.678 300.606 504.797 297.676L509.843 294.257C511.798 292.845 513.419 291.648 514.723 290.671C523.621 283.616 530.785 277.429 536.208 272.11C536.774 271.459 536.961 270.755 536.678 269.995L536.65 269.995ZM55.4981 272.11C51.918 276.452 48.384 281.069 44.9172 285.953L43.7825 286.442C42.2617 286.984 39.4326 288.34 35.3141 290.511L32.7126 291.976L30.1112 293.441C28.0425 294.527 26.254 295.451 24.7331 296.211C27.7748 292.086 32.7094 287.633 39.5391 282.857L43.7825 279.926L48.0167 277.161C51.7008 274.773 54.1945 273.087 55.4981 272.11V272.11ZM548.366 276.506C551.398 278.352 554.007 280.037 556.179 281.557C553.468 283.077 550.481 285.299 547.222 288.229C546.145 289.206 544.788 290.404 543.163 291.815L541.364 293.602L539.575 295.234L529.003 305.164C524.771 309.181 521.299 312.547 518.588 315.261L508.007 310.699L509.963 309.233L511.909 307.768C515.707 304.946 520.967 300.875 527.693 295.556C529.11 294.362 530.625 292.954 532.259 291.326L534.363 289.206L536.493 286.93L537.785 285.626L539.086 284.161C540.276 282.967 541.264 281.99 542.019 281.23C544.409 278.842 546.462 277.324 548.2 276.672L548.366 276.506ZM261.333 277.483C264.479 279.22 268.488 281.174 273.372 283.345L275.807 284.488L278.086 285.465C279.928 286.333 281.462 287.2 282.652 288.068L283.621 288.557L284.765 289.373C285.841 290.024 286.714 290.565 287.366 290.999C289.321 292.41 290.449 293.66 290.779 294.746C290.968 295.397 291.447 295.828 292.089 296.045L290.29 302.561C289.535 302.018 288.451 301.42 287.043 300.768L285.244 300.119L283.621 299.464C281.882 298.704 279.821 297.727 277.431 296.533L271.582 293.28C270.921 292.955 270.014 292.571 268.815 292.137L265.558 290.838C262.743 289.861 260.839 288.937 259.867 288.068L259.018 287.58L261.333 277.483ZM559.759 284.322L562.194 286.114L564.473 288.068C563.386 288.828 562.576 289.589 562.037 290.349C561.282 290.674 560.629 291.106 560.082 291.649L559.602 292.137L559.131 292.626C558.848 293.06 558.566 293.28 558.283 293.28C556.337 293.823 555.358 295.125 555.358 297.188L552.914 299.464L550.322 301.418L548.366 302.722L546.41 304.026C544.785 305.112 543.481 306.089 542.508 306.957L539.252 310.049L535.986 313.307C533.275 316.021 530.958 318.027 529.003 319.33H528.809L528.145 319.49L527.868 319.657L522.656 317.048L530.313 309.721L538.126 302.561L540.405 300.279L542.84 297.837C545.117 295.558 546.853 293.819 548.043 292.625C552.388 288.609 556.292 285.841 559.768 284.322L559.759 284.322ZM258.243 291.815C258.999 292.357 260.399 293.009 262.468 293.769C265.717 294.963 269.515 296.754 273.861 299.142L277.274 300.929L280.53 302.561L281.508 303.05L282.652 303.372C283.738 303.806 284.592 304.132 285.244 304.349C287.303 305.217 288.608 306.194 289.156 307.279L287.698 312.491L280.853 309.561C278.255 308.475 275.92 307.608 273.861 306.957C266.804 304.569 261.059 301.906 256.61 298.976L258.243 291.815ZM568.864 295.234V307.934C566.804 309.453 564.416 311.082 561.705 312.818L554.556 317.376C551.949 318.895 548.362 321.228 543.809 324.375L538.44 328.122L532.905 331.702C532.905 329.531 532.901 327.798 533.09 326.495C535.158 325.084 537.537 323.13 540.248 320.634L543.67 317.376L546.927 314.284C548.013 313.198 549.529 312.001 551.484 310.699L553.919 309.072L556.207 307.445C557.293 306.577 558.641 305.38 560.266 303.86L562.222 301.906L564.334 300.28C565.184 299.52 565.644 298.653 565.644 297.676H565.829H566.115C566.209 297.568 566.401 297.457 566.779 297.349C567.062 297.132 567.436 296.807 567.747 296.372L568.218 295.884L568.504 295.557L568.864 295.234ZM255.798 303.21C260.238 306.033 265.235 308.365 270.77 310.21C273.047 310.97 275.708 311.947 278.741 313.141L286.554 316.56L284.921 322.099L283.141 321.122L277.763 319.002L272.403 317.048L269.304 316.072L266.213 315.261C266.119 315.261 265.649 315.15 264.913 314.934L263.778 314.607L262.634 314.118C260.679 313.575 259.7 313.413 259.7 313.629C259.606 312.978 259.324 312.547 258.852 312.33C258.379 312.112 257.914 312.055 257.394 312.163C256.827 312.272 256.405 312.545 256.084 312.979C255.801 313.522 255.609 314.063 255.798 314.606L255.992 315.26C256.087 315.911 256.561 316.4 257.459 316.725C264.506 318.679 270.198 320.575 274.534 322.421L276.813 323.236L279.1 324.052C281.046 324.812 282.624 325.463 283.814 326.006L280.724 337.241C271.712 334.961 262.064 330.182 251.758 322.909L253.704 313.628L255.798 303.21ZM119.925 312.003C119.736 312.98 119.833 313.904 120.211 314.772L120.875 316.072V316.238C117.947 318.3 115.559 320.144 113.707 321.772C112.952 322.532 111.762 323.835 110.137 325.68L108.182 327.795L106.226 329.915C102.863 333.28 99.8227 335.339 97.1116 336.099C96.4504 336.207 96.0374 336.59 95.8202 337.242C95.6312 337.893 95.636 338.487 96.0139 339.029L90.9679 336.914C91.2512 336.046 92.2674 334.959 93.8922 333.656L95.036 332.845L95.8847 332.191C96.6404 331.649 97.1342 331.218 97.3515 330.892C100.384 327.636 102.834 325.083 104.676 323.238L107.444 320.634L110.368 318.192C112.748 316.021 114.599 314.23 115.903 312.819L119.925 312.003ZM568.864 312.98V313.629C568.297 314.172 567.918 314.77 567.729 315.422C567.257 316.724 566.211 318.463 564.473 320.634C563.811 321.502 563.063 322.421 562.194 323.398L561.216 324.541L560.368 325.518L559.897 326.007L553.55 330.076L547.37 334.311C545.632 335.505 543.085 337.511 539.722 340.333C539.533 340.551 539.155 340.929 538.578 341.471L537.73 342.126L536.881 342.937C535.37 344.348 534.109 345.435 533.136 346.195V339.845V336.264L533.606 336.098C536.534 334.252 540.773 331.485 546.3 327.794L552.646 323.398L558.993 319.329C563.008 316.832 566.259 314.716 568.753 312.979L568.864 312.98ZM108.218 314.606L102.997 319.168C100.938 320.905 99.3166 322.423 98.1264 323.726L94.0582 327.961C92.4334 329.589 91.0142 330.944 89.824 332.03C88.6337 333.115 87.8231 334.145 87.3886 335.122L81.2079 332.03L82.1765 331.053L83.0345 330.076C83.2234 329.858 83.5005 329.696 83.6894 329.587V329.426H83.8831L86.9735 326.329L90.0638 323.238L92.3424 320.956L94.6209 318.68C99.8258 316.943 104.381 315.583 108.292 314.607L108.218 314.606ZM127.083 317.048C129.908 317.374 133.265 318.246 137.175 319.657C135.551 320.526 133.594 321.88 131.318 323.726L128.716 325.841L126.115 327.795L122.203 330.891L118.301 334.145C114.938 336.858 112.277 338.922 110.331 340.333C109.481 340.985 109.242 341.851 109.667 342.937C106.521 342.177 103.975 341.583 102.019 341.149L100.23 340.495L98.44 339.846C100.717 339.303 103.158 337.89 105.755 335.611C106.606 334.851 107.655 333.874 108.855 332.68L110.322 331.053L111.788 329.749C115.151 326.276 120.244 322.042 127.074 317.049L127.083 317.048ZM86.2447 321.122L84.2983 323.076L82.1765 324.864C80.6557 326.384 79.4134 327.686 78.4405 328.772L77.2966 329.915C73.8298 328.069 71.0008 326.604 68.8281 325.518C73.4946 324.65 79.3017 323.185 86.2447 321.122ZM142.378 321.611C144.003 322.371 146.233 323.4 149.057 324.703C147.971 325.463 146.729 326.492 145.312 327.795L143.522 329.426L141.889 330.892L139.611 332.845L137.341 334.799C135.395 336.536 133.818 337.944 132.627 339.029C128.717 342.177 125.245 344.351 122.203 345.545L112.942 343.592C117.381 340.335 121.611 337.021 125.626 333.656L129.694 330.564L133.753 327.634L135.875 326.007L137.83 324.376C139.568 323.073 141.075 322.154 142.378 321.611V321.611ZM153.448 326.657C154.742 327.308 155.835 327.796 156.704 328.122L160.441 329.749C158.06 331.268 155.125 333.385 151.658 336.099L147.267 339.196L143.033 342.615L141.41 343.914L139.786 345.545C138.482 346.739 137.284 347.443 136.198 347.661C135.536 347.769 135.114 348.205 134.897 348.965L128.061 347.011C129.365 346.142 130.889 345.055 132.627 343.753L134.731 341.96L136.852 340.334C139.45 338.271 142.385 335.882 145.644 333.168C145.833 332.951 146.393 332.463 147.101 331.703L148.079 330.892L149.057 329.915C150.899 328.286 152.362 327.199 153.448 326.657V326.657ZM250.752 327.145C260.954 334.309 270.55 338.979 279.552 341.15L276.619 351.241L274.839 349.942L273.04 348.638C271.963 347.986 270.605 347.282 268.981 346.523L264.59 344.569C264.495 344.569 264.113 344.458 263.603 344.242C263.036 343.916 262.412 343.59 261.656 343.265C259.814 342.288 258.078 341.364 256.444 340.495C251.456 337.999 249.068 336.643 249.286 336.426C249.947 335.558 249.85 334.744 249 333.984L250.752 327.145ZM164.832 331.542L172.156 334.634C171.079 335.828 169.396 337.24 167.119 338.868L164.352 340.822L161.584 342.776L158.974 345.218L156.206 347.661C154.034 349.506 151.928 350.646 149.86 351.08C149.293 351.189 148.914 351.514 148.725 352.057C148.347 352.491 148.352 352.979 148.54 353.522C148.635 354.065 148.917 354.501 149.389 354.826C149.861 355.153 150.361 355.258 151.013 355.149C152.968 354.715 154.925 353.795 156.871 352.384L159.315 350.264L161.76 348.149C162.742 347.28 163.869 346.356 165.173 345.38L168.752 342.937C171.681 340.766 173.848 338.923 175.265 337.403C175.548 337.078 175.735 336.641 175.735 336.099L181.75 338.707L180.293 339.845L178.826 340.983C177.418 341.852 175.303 343.049 172.479 344.569L169.223 346.356L165.966 348.149L162.719 350.103L159.297 352.057C156.472 353.794 154.146 355.369 152.304 356.78C148.941 354.501 144.817 352.437 139.934 350.592C141.237 349.94 142.867 348.748 144.823 347.011L147.092 344.891C147.942 344.131 148.666 343.538 149.214 343.103L154.574 339.03L159.952 334.961L161.086 334.145L162.23 333.334L164.832 331.542ZM468.81 336.162C469.377 336.172 469.905 336.21 470.425 336.264L475.96 338.868L481.319 341.638C477.635 343.809 472.974 345.925 467.334 347.987L467.999 346.844L468.847 345.545C469.414 344.46 469.87 343.914 470.305 343.914C471.599 343.805 472.251 343.049 472.251 341.638C472.251 340.226 471.59 339.628 470.305 339.845C468.349 340.062 466.561 341.58 464.936 344.402C464.464 345.162 463.849 346.139 462.99 347.333L460.877 350.264L454.355 352.218C455.659 350.481 456.699 348.853 457.455 347.333C458.428 345.379 459.512 343.646 460.702 342.126C460.891 341.909 461.173 341.526 461.55 340.983C462.023 340.766 462.311 340.498 462.537 340.172C463.199 339.195 463.481 338.161 463.386 337.075V336.915L463.192 336.587C465.308 336.262 467.212 336.121 468.903 336.162L468.81 336.162ZM458.543 337.403L458.257 338.052C457.974 338.704 457.308 339.575 456.468 340.661L455.619 341.799L454.65 343.264C452.695 347.172 450.307 350.754 447.482 354.01L440.822 355.803C442.012 353.849 443.202 352.221 444.401 350.918C447.216 347.662 449.816 344.08 452.206 340.172C452.489 339.738 452.588 339.25 452.399 338.707L455.49 338.053L458.543 337.403ZM549.501 337.73L544.289 343.425L539.252 349.126C538.968 349.343 538.489 349.779 537.951 350.43L536.493 352.057C535.294 353.359 534.201 354.446 533.228 355.315V351.407C535.183 350.321 537.571 348.42 540.396 345.707L543.643 342.615C544.946 341.421 546.03 340.444 546.899 339.684L549.501 337.73ZM447.971 339.196C446.772 340.932 445.362 342.886 443.737 345.057L441.459 347.822L439.171 350.752C437.763 352.489 436.301 354.769 434.78 357.591L431.21 358.568L427.787 359.711C429.308 356.997 430.603 354.933 431.689 353.522L433.488 350.591L435.269 347.661L436.413 346.034L437.713 344.569C438.696 343.375 439.4 342.34 439.835 341.472C440.118 340.82 440.118 340.169 439.835 339.518L443.737 339.357L447.971 339.196ZM247.339 339.684C248.851 341.204 250.966 342.669 253.677 344.08L257.256 345.868L260.835 347.333L263.446 348.476L266.047 349.615C268.003 350.591 269.624 351.458 270.927 352.218L273.206 353.683L275.493 355.315L273.04 363.453H272.855C270.248 363.127 267.27 361.772 263.907 359.384C262.821 358.515 261.464 357.376 259.839 355.965L258.04 354.338L256.26 352.873C256.071 352.764 255.688 352.544 255.273 352.218L254.138 351.08C252.948 350.212 251.969 349.451 251.214 348.799C248.606 346.845 246.703 345.763 245.513 345.546L245.706 344.892C245.895 344.566 245.992 344.188 245.992 343.754L247.339 339.684ZM435.924 340.007L434.955 341.638L433.645 343.103C432.559 344.406 431.81 345.488 431.376 346.356C430.809 347.333 429.965 348.636 428.765 350.264L426.164 354.011L423.885 357.918L421.607 361.826L412.502 364.757L416.404 358.734L420.472 352.706C423.504 348.147 426.43 344.35 429.254 341.311C431.096 340.659 433.326 340.224 435.924 340.007V340.007ZM185.984 345.546C185.984 346.414 186.081 347.769 186.27 349.614C185.703 349.723 185.3 350.101 184.97 350.753C184.403 351.729 183.021 352.869 180.745 354.172L179.435 354.988L178.134 355.803C177.048 356.346 176.29 356.777 175.855 357.103L170.486 360.522L165.118 363.941L163.651 364.757L162.018 365.734C160.497 366.602 159.308 367.306 158.439 367.849C155.728 369.803 154.222 371.756 153.891 373.71C153.796 374.361 153.889 374.908 154.361 375.342C154.645 375.776 155.114 376.102 155.653 376.319C156.22 376.427 156.632 376.366 156.954 376.152C157.52 375.935 157.808 375.504 157.941 374.853C158.035 373.659 159.234 372.356 161.52 370.945C162.181 370.403 163.088 369.804 164.287 369.153L165.422 368.503L166.391 368.015L176.16 361.826C176.727 361.392 177.509 360.903 178.595 360.36L181.363 358.734C183.753 357.323 185.541 356.073 186.741 354.987L186.934 359.545V364.107C185.518 364.867 183.949 365.844 182.221 367.038L177.654 370.13C173.753 372.735 170.554 374.636 168.06 375.83L164.158 377.618C162.637 378.378 161.333 379.139 160.247 379.899L158.448 381.203L156.668 382.829C155.147 384.023 153.843 384.89 152.756 385.433C152.189 376.966 152.568 370.564 153.9 366.222C154.561 365.571 155.574 364.757 156.981 363.78L158.78 362.641C159.536 362.208 160.082 361.824 160.404 361.499C163.115 359.436 167.028 356.941 172.119 354.01L176.999 351.241L181.888 348.637C182.361 348.42 182.913 347.984 183.678 347.333L184.813 346.522L185.984 345.546ZM420.472 345.546C418.62 348.042 416.242 351.567 413.313 356.126L409.891 361.499L406.312 366.872L404.033 367.527C402.947 367.852 399.581 368.935 393.941 370.78L400.122 364.108L406.312 357.43C411.299 352.329 416.023 348.368 420.472 345.546V345.546ZM244.24 349.614C245.09 350.374 246.413 351.299 248.151 352.384L250.107 353.522L251.73 354.66L254.009 356.453L256.444 358.407C258.513 360.143 260.081 361.393 261.167 362.153C265.078 365.084 268.646 366.818 271.905 367.36L269.636 374.853L267.182 382.18C267.371 381.529 267.375 380.878 266.997 380.226C266.525 379.684 266.026 379.358 265.374 379.249C264.287 379.141 263.098 378.595 261.795 377.618L260.328 376.319L258.704 375.014L254.636 372.411L250.402 369.803L245.033 366.383L239.655 362.964L244.24 349.614ZM238.382 367.038L243.76 370.457L249.286 373.876C250.268 374.419 251.51 375.286 253.031 376.48L254.977 378.106L256.933 379.572C260.192 381.851 263.012 383.101 265.401 383.318C266.252 383.427 266.861 383.101 267.182 382.341L265.401 388.042L264.553 387.553C261.407 386.033 257.873 384.458 253.972 382.829H253.778L253.594 382.669L253.123 382.502C252.462 382.177 251.757 381.909 251.001 381.691C248.942 380.715 246.986 379.843 245.144 379.083C239.504 376.587 236.737 375.179 236.841 374.853C237.313 373.876 237.126 373.004 236.371 372.245L238.382 367.038ZM187.128 368.826L187.599 372.084L183.364 376.152L178.973 380.06C175.61 383.1 172.632 385.436 170.034 387.065L165.8 389.507L161.723 391.783C158.691 393.628 156.144 395.314 154.075 396.834C153.603 394.554 153.324 392.165 153.107 389.668C154.297 389.342 155.813 388.476 157.655 387.065C162.321 383.591 166.339 381.091 169.702 379.572C172.196 378.486 175.174 376.753 178.641 374.365L182.876 371.595L187.128 368.826ZM234.314 378.106C235.296 378.866 236.653 379.68 238.382 380.549L240.503 381.526L241.472 381.853L242.459 382.18C248.968 385.002 254.228 387.334 258.243 389.179L261.01 390.645L263.935 392.271L262.468 396.667L260.835 400.902C260.552 400.685 260.178 400.522 259.867 400.414C257.373 400.305 254.5 399.328 251.241 397.483C250.155 396.832 248.851 395.965 247.339 394.879L245.383 393.736L243.585 392.437L240.66 390.644L237.736 388.852C235.242 387.441 233.286 386.196 231.878 385.11L234.314 378.106ZM230.411 389.18C232.367 390.591 234.745 392.166 237.57 393.903L244.894 398.622C247.171 400.033 249.506 401.283 251.896 402.368C254.825 403.671 257.371 404.375 259.544 404.483L256.121 413.603L255.466 412.626L254.608 411.81C254.136 411.267 253.857 410.889 253.63 410.672C251.902 409.152 249.408 407.577 246.149 405.949C245.582 405.622 244.959 405.297 244.193 404.972L243.059 404.483L241.758 403.994C239.481 403.017 237.64 402.203 236.232 401.552C231.783 399.164 229.333 396.779 228.899 394.391L228.714 393.903L230.411 389.18ZM230.882 402.857C232.393 403.834 234.35 404.863 236.74 405.948L239.664 407.414C240.75 407.848 241.57 408.231 242.109 408.557C246.671 410.728 250.733 413.764 254.313 417.672L254.498 417.838L252.21 423.533C247.118 420.06 242.289 415.774 237.736 410.672L234.147 406.765C232.853 405.353 231.769 404.051 230.9 402.857L230.882 402.857Z" fill="white"/>
</svg>
