<svg width="570" height="277" viewBox="0 0 570 277" fill="none" xmlns="http://www.w3.org/2000/svg">
<path d="M303.233 0C301.929 0 301.339 0.651263 301.443 1.95381C301.537 2.27944 301.445 2.60518 300.972 2.93076L300.493 3.41926L300.216 3.9077C299.555 4.55896 299.07 5.26293 298.749 6.02276L298.085 7.32689L297.615 8.79234C297.048 9.98635 296.529 10.8531 295.991 11.3958C295.141 12.3727 295.141 13.3496 295.991 14.3265C296.964 15.3034 297.933 15.3034 298.915 14.3265C299.671 13.5667 300.323 12.4796 300.871 11.0685L301.729 9.28078L302.578 7.48814L303.546 6.18394L304.69 5.04582C305.54 3.96035 305.938 2.93081 305.825 1.95389C305.636 0.651335 304.797 7.21151e-05 303.389 7.21151e-05L303.233 0ZM315.28 2.76467C313.977 2.76467 313.272 3.41591 313.168 4.71849C313.168 5.15263 312.879 5.69866 312.19 6.34995L311.341 6.99963L310.493 7.64924L309.201 8.95344C308.634 9.49619 308.212 9.98463 307.891 10.4188C307.135 11.6128 307.327 12.5371 308.555 13.1884C309.755 13.8397 310.724 13.6193 311.48 12.5338C311.763 11.9911 312.338 11.3398 313.122 10.58L314.902 8.95344C316.31 7.54235 317.077 6.1296 317.181 4.71849C317.275 3.41594 316.613 2.7646 315.234 2.7646L315.28 2.76467ZM257.8 10.0134C257.328 10.0134 256.852 10.2576 256.37 10.746C255.397 11.7229 255.345 12.6999 256.186 13.6768C256.374 14.0024 256.656 14.4909 257.034 15.1421L257.32 15.953L257.791 16.6075L258.261 17.096L258.925 17.7457C259.492 18.1799 259.684 18.6157 259.59 19.0498C259.59 20.3524 260.242 21.0037 261.527 21.0037C262.944 21.0037 263.701 20.3524 263.815 19.0498C263.909 17.6387 263.247 16.2787 261.859 14.9761C261.387 14.542 260.921 13.838 260.401 12.8611L259.737 11.723L259.073 10.7461C258.601 10.2576 258.227 10.0134 257.735 10.0134H257.8ZM326.415 11.3958C326.131 11.3958 325.849 11.4487 325.566 11.5569C322.855 12.6424 320.308 14.4334 317.919 16.9299C316.946 17.9068 316.946 18.8838 317.919 19.8607C318.901 20.7291 319.87 20.7291 320.843 19.8607C322.902 17.6898 324.859 16.2819 326.701 15.6307C327.9 15.0879 328.332 14.1636 328.001 12.8611C327.812 11.8842 327.245 11.3958 326.452 11.3958H326.415ZM418.442 12.6999C417.97 12.8085 417.595 13.0239 417.142 13.3496C416.858 13.7837 416.572 14.2722 416.477 14.815C416.477 15.3577 416.664 15.8462 416.948 16.2803C418.138 17.5829 418.958 19.5367 419.392 22.1418C419.487 23.1188 419.575 24.2585 419.669 25.561L419.863 27.1876V28.653C419.863 29.1957 420.046 29.6842 420.518 30.1183C420.99 30.444 421.465 30.6069 421.985 30.6069C422.551 30.6069 422.955 30.444 423.276 30.1183C423.748 29.6842 423.94 29.1957 423.94 28.653C423.846 25.288 423.654 22.5777 423.276 20.5153C422.615 17.476 421.497 15.0863 419.872 13.3496C419.4 12.9153 418.925 12.6999 418.405 12.6999H418.442ZM152.636 13.1884C151.786 13.1884 151.179 13.6769 150.773 14.6538C150.962 14.2195 150.774 14.2723 149.924 14.815L149.075 15.4646C148.886 15.6818 148.699 15.8445 148.605 15.9531L146.483 18.2342L144.527 20.5153C143.554 21.7093 142.576 23.1172 141.603 24.7454L140.754 26.0495L140.09 27.5149C139.429 28.7089 138.839 29.5757 138.291 30.1184C137.725 30.5527 137.542 31.041 137.636 31.5838C137.636 32.1265 137.819 32.615 138.291 33.0492C138.669 33.3748 139.053 33.5953 139.601 33.7038C140.168 33.7038 140.624 33.4834 141.059 33.0492C141.72 32.5064 142.319 31.7498 142.858 30.7729L143.522 29.4688L144.177 28.1646C145.377 26.2108 146.743 24.3671 148.254 22.6304L149.232 21.4922L150.21 20.188C150.966 19.2111 151.724 18.5072 152.479 18.073C153.669 17.2047 154.437 16.3905 154.758 15.6307C155.23 14.4367 154.761 13.6753 153.457 13.3497C153.174 13.241 152.797 13.1885 152.608 13.1885L152.636 13.1884ZM438.451 13.3496C437.884 13.4582 437.481 13.6736 437.16 13.9993C436.687 14.4334 436.491 14.9219 436.302 15.4646C436.302 16.0074 436.498 16.4958 436.781 16.93C437.348 17.5813 437.348 18.8838 436.781 20.8376L436.302 22.1418L436.025 23.1188C435.742 23.9872 435.554 24.5858 435.554 24.9114L434.89 27.0265L434.226 29.1415C433.754 30.7697 433.571 32.1824 433.571 33.3764C433.571 34.679 434.229 35.3302 435.674 35.3302C437.091 35.3302 437.734 34.679 437.63 33.3764C437.63 32.1824 437.909 30.6069 438.599 28.653L439.447 26.2107L440.425 23.6072C441.729 19.3739 441.509 16.2277 439.761 14.1653C439.478 13.6226 439.008 13.3496 438.46 13.3496H438.451ZM243.889 19.7386C243.416 19.766 242.876 20.0268 242.385 20.5153C241.412 21.4922 241.436 22.4116 242.57 23.28L244.848 25.2338L247.127 27.1877C248.43 28.4902 249.673 29.199 250.863 29.3076C252.166 29.5247 252.818 28.926 252.818 27.5149C252.818 26.1038 252.157 25.3423 250.863 25.2338C250.957 25.2338 250.867 25.1285 250.678 24.9114L250.392 24.5842L250.208 24.423C249.924 24.0974 249.446 23.7142 248.898 23.28L245.485 20.3492C244.918 19.915 244.418 19.7115 243.898 19.7386H243.889ZM102.443 20.6765C101.877 20.6765 101.42 20.7867 100.986 21.0037C100.514 21.3294 100.226 21.7076 99.9988 22.1418C99.9044 22.6845 100.001 23.2257 100.285 23.7684C103.317 28.0017 104.833 32.6708 104.833 37.7725C104.833 38.4238 105.025 38.9122 105.497 39.2379C105.78 39.5635 106.35 39.7264 106.964 39.7264C107.53 39.7264 107.934 39.5636 108.264 39.2379C108.737 38.9122 108.929 38.4238 108.929 37.7725C108.929 31.8024 107.245 26.4294 103.883 21.6533C103.599 21.1106 103.03 20.7849 102.416 20.6764L102.443 20.6765ZM168.208 21.9513C167.641 22.0109 167.219 22.347 166.879 22.9575C165.576 23.2832 164.051 24.0973 162.313 25.3999L160.21 27.0264L158.097 28.4918C154.517 30.6627 152.34 33.105 151.584 35.8187C151.396 36.4699 151.4 37.0111 151.778 37.4453C151.967 37.8795 152.337 38.1524 152.913 38.261C153.48 38.3696 153.945 38.3168 154.38 38.0998C154.946 37.8827 155.325 37.4996 155.514 36.9569C155.798 35.7629 156.717 34.6231 158.125 33.5376L159.905 32.2383L161.704 31.0954L163.485 29.7961L165.108 28.4919C166.525 27.4064 167.829 26.7551 169.02 26.538C169.775 26.4295 170.269 25.941 170.486 25.0727L170.68 24.5842C170.869 23.4987 170.484 22.6846 169.379 22.1418C169.001 21.9791 168.622 21.9158 168.263 21.9514L168.208 21.9513ZM394.679 23.8124C394.396 23.785 394.114 23.8256 393.83 23.9345C393.358 24.0431 392.979 24.3688 392.686 24.9114C392.497 25.3456 392.398 25.8341 392.493 26.3768C392.587 26.9196 392.97 27.3505 393.47 27.6761C395.964 29.1958 398.573 31.9637 401.284 35.9799L402.419 38.0998L403.553 40.3761C404.403 42.1128 405.242 43.4729 406.007 44.4498C406.479 44.884 406.945 45.0995 407.465 45.0995C407.937 45.0995 408.321 44.8839 408.775 44.4498C409.058 44.1241 409.335 43.6883 409.43 43.1456C409.524 42.4943 409.431 41.9532 408.959 41.519C408.487 40.9763 408.012 40.1047 407.492 38.9107L406.837 37.6114L406.358 36.3072L404.734 33.7037L403.11 31.2614C401.155 28.3306 398.609 25.941 395.463 24.0957C395.18 23.9328 394.898 23.8395 394.614 23.8124H394.679ZM295.391 26.3133C292.539 26.3133 289.622 26.8246 286.637 27.8422C285.116 28.3849 283.231 28.926 280.945 29.4687L275.244 31.0953C270.474 32.2893 266.781 33.5919 264.184 35.003C262.124 36.0885 261.578 37.7166 262.56 39.8876V41.0306C260.283 43.8528 258.38 49.3311 256.868 57.4721L256.01 62.1955L255.54 64.4766L255.263 66.5916C254.791 69.9566 254.503 72.1259 254.276 73.1028C250.157 90.4703 245.161 112.073 239.304 137.907C232.692 167.106 222.928 200.158 210.024 237.064L209.166 237.88C207.872 238.965 207.546 240.268 208.198 241.787C209.048 244.284 210.855 247.215 213.576 250.58C214.549 251.665 215.791 252.968 217.312 254.487L218.935 256.441L220.568 258.068C227.719 265.666 234.284 271.365 240.254 275.164C240.821 275.489 241.392 275.704 242.044 275.813C242.611 276.031 243.129 276.14 243.667 276.14C246.596 276.466 250.173 275.867 254.405 274.348C256.247 273.805 258.362 273.316 260.752 272.882L264.017 272.56L267.421 272.071C268.621 271.962 270.031 271.689 271.656 271.255L275.89 269.79C279.366 268.705 282.177 268.164 284.349 268.164C286.73 268.164 288.034 266.966 288.251 264.578C288.913 264.036 289.282 263.442 289.395 262.79C291.237 255.518 293.414 247.157 295.908 237.713L302.734 212.64C308.591 191.365 312.936 174.595 315.751 162.329C317.385 155.056 320.037 145.287 323.721 133.021L328.121 118.529C329.756 112.993 331.103 108.108 332.189 103.875L333.813 97.8524L335.446 91.5024C336.74 86.6178 337.939 82.3319 339.016 78.6413C342.058 68.8721 345.265 60.7837 348.628 54.3795C349.478 52.7513 349.291 51.2333 348.158 49.8222C347.969 48.8453 347.394 48.0311 346.525 47.3799C333.187 37.8278 317.837 30.9894 300.474 26.8646C298.812 26.4982 297.12 26.3127 295.41 26.3127L295.391 26.3133ZM472.602 27.9594C472.413 27.9628 472.32 27.9764 472.131 28.0038C470.941 28.2209 469.733 28.6568 468.543 29.308C467.787 29.7421 466.765 30.3935 465.462 31.2619L463.995 32.5612L462.362 33.8653C461.172 34.8422 460.035 35.3834 458.949 35.4919C457.645 35.4919 456.993 36.2007 456.993 37.6118C456.993 38.9144 457.655 39.5656 458.949 39.5656C461.008 39.5656 463.396 38.4259 466.107 36.1464L467.731 34.8422L469.354 33.538C470.658 32.6697 471.91 32.1286 473.1 31.9115C474.403 31.6944 474.897 30.933 474.567 29.6304C474.283 28.4907 473.622 27.9361 472.592 27.9599L472.602 27.9594ZM86.0877 30.2552C85.9932 30.2484 85.8039 30.2573 85.7095 30.2844C85.1427 30.2844 84.6772 30.4473 84.2427 30.7729C83.9593 31.2071 83.673 31.6956 83.5785 32.2383C83.5785 32.7811 83.7704 33.2695 84.2427 33.7037L87.4991 36.7956L90.7647 39.8876L91.8901 41.1918L93.0248 42.496L93.689 43.1456L94.3532 43.7953C94.92 44.2295 95.1988 44.6652 95.331 45.0995C95.52 45.7507 95.8989 46.1866 96.4657 46.4037C96.938 46.6208 97.4129 46.6208 97.9324 46.4037C98.4992 46.2951 98.912 46.022 99.2332 45.5879C99.5165 45.1537 99.6158 44.6653 99.4269 44.1225C99.1435 43.037 98.4534 42.0075 97.4804 41.0306L96.1705 39.5652L94.8698 38.261C93.8968 37.2841 92.6451 36.0342 91.1337 34.5146L87.2223 30.7729C86.939 30.4473 86.5582 30.2756 86.1615 30.2552H86.0877ZM235.799 30.729C235.421 30.729 235.04 30.8511 234.728 31.0954C234.256 31.421 233.977 31.8568 233.76 32.3995C233.665 32.9422 233.755 33.4308 233.944 33.8649C234.133 34.2992 234.612 34.572 235.254 34.6806C236.01 34.8978 236.821 35.276 237.69 35.8188L238.834 36.7957L239.802 37.6114C241.644 39.2396 243.274 40.159 244.691 40.3761C245.995 40.4846 246.638 39.8333 246.638 38.4223C246.638 37.0111 245.976 36.2545 244.691 36.146C244.219 36.146 243.605 35.7629 242.736 35.0031L241.887 34.0261C241.604 33.7005 241.312 33.4849 241.029 33.3764C239.187 31.9653 237.557 31.0986 236.149 30.7729C236.055 30.7455 235.865 30.7295 235.771 30.7285L235.799 30.729ZM293.113 35.7748C306.045 35.573 319.73 39.9842 334.154 49.0072C331.339 49.4413 328.184 50.0399 324.717 50.7998C322.649 49.4972 320.049 48.3 316.904 47.2145L312.836 45.9152L308.767 44.611C305.726 43.6341 302.21 42.2789 298.196 40.5421L292.827 38.4223L287.615 36.146C289.438 35.9289 291.271 35.8036 293.113 35.7748V35.7748ZM281.434 37.2841C281.529 37.9354 281.902 38.4765 282.403 38.9107C283.064 39.2364 283.707 39.2939 284.358 39.0768L293.962 42.9845L303.731 47.0533C305.138 47.7045 307.526 48.5713 310.889 49.6568L314.791 50.961L318.527 52.4263L313.168 54.0529C311.43 52.8589 309.799 53.0217 308.279 54.5413C306.654 53.9986 304.759 52.9164 302.587 51.2882L299.985 49.3343C299.003 48.5745 298.087 47.9759 297.218 47.5417L292.984 45.4267C291.349 44.5583 289.887 43.8495 288.593 43.3068L286.48 42.496L284.202 41.6802C282.35 41.1374 280.94 40.5964 279.967 40.0536C278.994 39.6195 277.743 39.1837 276.231 38.7495C277.743 38.2068 279.479 37.7182 281.434 37.2841V37.2841ZM481.587 38.73C481.209 38.7148 480.83 38.8325 480.434 39.0768C479.867 39.5109 479.19 39.9418 478.321 40.3761L476.033 41.3529C473.974 42.1128 472.468 42.8743 471.485 43.6341C469.209 45.2623 466.6 47.5418 463.672 50.4725C462.699 51.3409 462.699 52.2651 463.672 53.242C464.654 54.219 465.623 54.2716 466.596 53.4032C469.742 50.2554 472.413 47.9759 474.576 46.5648L476.531 45.4267L478.487 44.611C480.329 43.8512 481.686 43.1999 482.555 42.6571C483.642 41.8973 483.852 40.973 483.22 39.8876C482.747 39.1413 482.21 38.7554 481.605 38.7299L481.587 38.73ZM180.624 39.0572C179.963 39.0827 179.49 39.4685 179.084 40.2148C178.989 40.3234 178.707 40.4336 178.235 40.5421L177.571 40.7033L177.101 40.8644C176.128 41.2987 174.823 42.0074 173.198 42.9843L171.4 44.2836L169.776 45.4266C168.368 46.295 167.064 46.7259 165.874 46.7259C165.213 46.6173 164.676 46.7798 164.241 47.2144C163.958 47.6485 163.771 48.137 163.771 48.6798C163.771 49.2225 163.958 49.711 164.241 50.1451C164.713 50.5793 165.222 50.7997 165.874 50.7997C167.395 50.7997 168.963 50.3639 170.588 49.4955L172.709 48.3574L174.822 46.892C176.229 46.0236 177.966 45.1521 180.025 44.2837C181.328 43.7409 182.201 43.037 182.635 42.1686C183.297 41.0832 183.015 40.1589 181.787 39.3991C181.314 39.1548 180.938 39.0418 180.56 39.0572H180.624ZM270.041 45.4267L272.32 45.9152L274.765 46.5648C276.059 46.999 277.795 47.703 279.967 48.6799L282.569 49.984L283.869 50.6337L285.013 51.2883L287.781 52.4264L290.714 53.7305C293.208 54.816 295.05 55.7929 296.24 56.6613L298.03 57.9606L299.653 59.1036C300.957 60.0805 302.103 60.7844 303.076 61.2186L302.412 62.5228C301.221 62.4142 299.979 61.8683 298.675 60.8914L297.052 59.7532L295.253 58.4491C294.167 57.9064 292.862 57.3652 291.351 56.8225L289.238 56.1729L287.117 55.5183L282.237 53.8917L277.034 52.0991C273.019 50.688 269.768 49.3328 267.265 48.0302C267.643 47.1618 267.83 46.6734 268.113 46.5648C268.869 46.4563 269.521 46.078 270.069 45.4267H270.041ZM75.6082 45.9152C74.6352 45.9965 73.7629 46.3223 72.9883 46.8922C72.4216 47.3263 72.1396 47.8147 72.1396 48.3575C72.0452 48.9002 72.1444 49.3887 72.3334 49.8229C72.6167 50.3656 72.9957 50.6912 73.468 50.7998C74.0348 50.9084 74.5624 50.7982 75.1008 50.4726C75.951 49.8213 77.2121 49.9314 78.8369 50.7998L80.7926 51.9379L81.6413 52.5875L82.4992 53.076L83.7999 53.8918L85.2667 54.7075C86.4569 55.3588 87.5409 55.6269 88.5138 55.5184C89.8174 55.4097 90.4695 54.7058 90.4695 53.4033C90.4695 51.9922 89.808 51.3409 88.5138 51.4495C87.6637 51.5581 86.3933 51.0696 84.7685 49.9841L82.8128 48.6799C82.1516 48.1372 81.6859 47.7589 81.3553 47.5418C79.1921 46.3206 77.2881 45.7795 75.6728 45.9152H75.6082ZM265.973 51.9379C268.259 53.1319 271.184 54.3243 274.765 55.5183L279.322 57.1498L283.713 58.6152L286.969 59.7532L289.903 60.8914C292.179 61.7597 294.117 62.7366 295.751 63.8221C297.593 65.2332 299.224 66.1049 300.631 66.4305L299.653 68.5455C297.056 68.0028 294.121 67.0785 290.871 65.776L286.637 63.8221L282.403 61.8683C274.921 58.2863 269.176 56.1169 265.161 55.3571C265.445 54.0546 265.727 52.9148 266.01 51.9379H265.973ZM338.545 56.6613C336.703 61.0032 334.809 66.7019 332.854 73.7574L330.409 82.3836L327.808 91.0146C320.969 112.507 314.73 133.999 309.09 155.491L302.264 181.38L295.262 207.268C289.727 228 285.233 245.312 281.757 259.206L281.563 259.533V260.182C278.635 260.4 274.626 261.376 269.525 263.113C268.221 263.547 266.432 263.873 264.156 264.09L261.388 264.256L258.621 264.579C257.431 264.796 256.083 265.179 254.562 265.722L250.807 267.021C254.066 258.88 257.371 249.436 260.733 238.69C261.706 238.69 262.358 238.259 262.689 237.391C262.878 236.414 262.695 235.6 262.034 234.949C264.207 227.785 267.176 217.47 270.973 204.01L275.373 188.706L279.93 173.237L284.165 159.56L288.233 145.883C291.161 135.571 293.54 126.29 295.382 118.041L296.849 111.53L298.15 104.852C299.34 99.6422 300.548 95.246 301.738 91.664C302.021 90.3615 302.678 88.1922 303.528 85.1529L304.506 81.4064L305.64 77.4987C307.596 71.0945 309.605 66.3727 311.664 63.3334C321.857 59.6428 330.81 57.4208 338.509 56.661L338.545 56.6613ZM193.53 57.6529C192.415 57.6699 191.446 58.1539 190.633 59.1036H190.449L190.163 59.2648H189.877L189.692 59.4259H189.407C187.678 59.8601 185.668 60.8371 183.392 62.3567C182.92 60.2943 181.706 59.4276 179.647 59.7532C153.282 63.0096 117.7 73.6455 72.9053 91.6643C56.96 98.0685 43.6718 105.343 33.0353 113.484C32.1851 114.135 30.9242 115.059 29.29 116.253L25.2218 119.184C21.8589 121.681 19.1013 123.85 16.9286 125.695C10.524 131.231 6.24177 136.494 4.06912 141.487C2.9828 141.704 2.17219 142.25 1.63375 143.119L0.0101661 149.957C-0.0842968 153.105 0.4813 157.606 1.63375 163.468L2.93446 170.145C3.21785 172.75 3.41415 175.03 3.41415 176.983C3.41415 178.612 4.07215 179.804 5.51743 180.564C58.5678 208.243 102.283 230.171 136.668 246.345C135.147 248.299 135.367 250.142 137.332 251.879C139.174 253.616 140.972 253.563 142.701 251.717C145.629 248.678 149.859 245.584 155.394 242.437L158.808 240.483L162.221 238.529C164.724 236.901 166.892 235.435 168.734 234.133C171.01 232.396 173.998 229.738 177.682 226.156L182.082 222.083L186.63 218.175C187.83 217.198 188.261 216.005 187.931 214.594C187.647 213.4 186.799 212.476 185.495 211.825C185.212 209.98 185.025 207.758 185.025 205.152V198.314C185.025 197.554 185.029 196.52 184.84 195.217L184.361 191.798C184.172 189.193 184.368 187.186 185.218 185.775C185.407 185.341 185.594 184.853 185.689 184.31C186.35 183.333 186.632 182.356 186.538 181.379C186.349 180.294 185.596 179.427 184.425 178.776C176.178 174.434 164.027 169.061 147.978 162.656C146.561 162.114 144.614 161.3 142.12 160.214L135.93 157.445C130.829 155.165 126.556 153.59 123.08 152.721C132.951 150.767 140.211 148.162 144.878 144.906C145.851 144.797 146.618 144.472 147.156 143.929C153.665 138.176 161.693 131.936 171.243 125.206C172.867 124.121 174.93 122.928 177.423 121.626L180.837 119.833L184.102 118.041C189.628 115.218 193.638 112.561 196.131 110.064C197.974 108.002 197.876 105.995 195.855 104.041C196.516 103.281 196.823 102.41 196.823 101.433V96.2261L196.639 91.0142C196.639 86.8894 196.727 83.36 196.916 80.4293L197.109 76.6877L197.764 76.1991L198.622 75.872C199.472 75.2207 199.702 74.3539 199.277 73.2684C198.805 72.1829 198.138 71.7472 197.165 71.9643C197.165 68.0566 197.447 65.0156 198.013 62.8447C198.675 60.6737 198.017 59.1031 195.901 58.1262C195.145 57.8005 194.403 57.6422 193.742 57.6523L193.53 57.6529ZM482.887 58.0632C482.51 58.0783 482.131 58.2049 481.734 58.449C480.657 59.2088 480.437 60.1331 481.07 61.2186C481.353 61.6528 481.732 62.1412 482.205 62.684C482.866 63.4438 483.729 63.554 484.815 63.0113C485.382 62.7941 486.112 62.684 487.094 62.684L488.219 62.8452H489.363L490.212 62.684H491.347C492.197 62.5754 492.824 62.6856 493.145 63.0113C493.996 63.8796 494.94 63.8222 495.913 62.8452C496.886 61.8683 496.938 60.9489 496.097 60.0805C495.342 59.3206 494.363 58.8848 493.173 58.7763L491.55 58.6151L489.926 58.7763L487.159 58.6151C486.072 58.6151 485.2 58.7204 484.548 58.9375C484.076 58.3269 483.538 58.0377 482.934 58.0631L482.887 58.0632ZM264.184 59.426C266.46 59.8602 269.069 60.7844 271.997 62.1956L275.899 63.9882L279.635 65.776C280.835 66.3187 282.35 66.8072 284.202 67.2414L286.637 67.8959L288.915 68.7068L291.36 69.5224L293.639 70.6606C295.594 71.5289 297.109 72.1276 298.196 72.4532C297.44 74.8412 296.567 77.772 295.594 81.2455C295.5 80.4855 295.03 79.9972 294.294 79.7802C292.225 79.1289 289.564 77.8263 286.314 75.8725L282.569 73.5913C281.057 72.7229 279.7 72.0191 278.51 71.4763C277.66 71.1507 276.389 70.7724 274.765 70.3382L270.53 69.1952C267.054 68.2183 264.455 67.1887 262.717 66.1033C263.284 63.6067 263.749 61.3798 264.184 59.426V59.426ZM425.047 61.3945C424.575 61.3996 424.099 61.5035 423.645 61.7071L422.99 61.8682C421.687 61.3255 420.435 61.4356 419.245 62.1955C417.837 63.0639 417.185 64.2562 417.289 65.7759L415.177 67.2412C411.7 69.5207 406.766 73.0501 400.371 77.8262L394.347 82.2223L388.166 86.7796C382.735 90.6873 378.673 93.6181 375.962 95.5718L375.491 96.0606C373.536 96.6031 372.567 97.8532 372.567 99.807C372.567 106.211 373.033 113.648 374.024 122.115C374.119 123.418 374.119 125.261 374.024 127.649V130.419L374.218 133.35C374.218 133.783 374.306 134.377 374.495 135.137L374.781 137.257C375.064 138.885 374.967 140.13 374.495 140.999C373.191 142.953 373.517 144.638 375.473 146.05C377.428 147.461 379.217 147.461 380.842 146.05C402.87 153.756 424.785 162.654 446.587 172.749L443.488 173.076C441.646 173.293 439.31 173.456 436.495 173.564H432.741H429.005C422.931 173.564 418.164 174.163 414.688 175.357C407.641 177.854 400.045 183.495 391.911 192.287L387.022 197.826L382.142 203.36C378.241 207.811 374.99 211.177 372.382 213.457C370.427 214.326 369.616 215.791 369.947 217.853C368.53 218.613 367.878 219.805 367.991 221.433C368.086 223.062 368.934 224.254 370.427 225.014C370.427 226.751 370.614 228.815 370.897 231.203L371.561 237.391C372.223 242.602 372.41 246.777 372.032 249.925C372.032 250.902 372.51 251.826 373.342 252.695C374.192 253.563 375.18 253.999 376.266 253.999C386.903 253.565 400.243 250.471 416.302 244.718L426.219 240.972L436.145 237.064C444.609 233.699 450.847 231.31 454.862 229.898C459.529 228.162 464.833 226.371 470.803 224.525L486.753 219.641C500.639 215.407 511.266 211.936 518.643 209.222H518.828C519.489 209.331 520.131 209.331 520.783 209.222C524.902 208.245 529.352 205.041 534.122 199.614L536.89 196.195L539.648 192.776C541.934 190.062 543.723 188.055 545.026 186.753C549.041 182.954 553.323 178.232 557.877 172.587C559.397 170.742 560.587 169.224 561.456 168.03C562.759 166.185 563.781 164.499 564.546 162.979C566.284 162.437 567.157 161.192 567.157 159.238V149.791L568.292 148.814L569.269 148.003C570.12 147.243 570.245 146.372 569.555 145.395C568.894 144.526 568.093 144.258 567.12 144.584V129.93C567.687 128.845 567.687 127.705 567.12 126.511C566.553 125.208 565.709 124.394 564.509 124.069H564.039L563.568 123.902H563.098C561.794 122.491 560.111 122.276 558.052 123.253C557.296 122.71 556.212 122.006 554.795 121.138L553.006 120.322L551.539 119.345L547.148 116.576L542.914 113.811C539.23 111.423 536.41 109.574 534.455 108.272C530.119 105.667 524.911 102.956 518.837 100.134L510.857 96.5488L502.896 92.9684C492.26 88.3008 480.055 83.2535 466.283 77.8261C464.223 77.0663 458.522 75.1125 449.189 71.9646C439.969 68.9253 433.087 66.756 428.534 65.4534C428.44 64.0423 427.965 62.9552 427.068 62.1954C426.406 61.6527 425.784 61.3859 425.047 61.3944V61.3945ZM189.01 68.2182V72.292L188.825 76.3609L186.058 77.8263L182.958 79.4528C180.578 80.7555 178.401 81.9527 176.455 83.0382C171.24 85.9689 166.79 88.5165 163.106 90.6874C153.122 96.6575 148.681 100.35 149.758 101.761C149.475 101.327 148.914 101.054 148.3 100.945C147.734 100.945 147.268 101.056 146.834 101.272C146.834 98.667 147.116 96.4402 147.682 94.5949C148.532 94.161 149.045 93.4041 149.149 92.3187C150.349 91.45 152.075 90.4733 154.361 89.3879L156.963 88.2448C157.936 87.811 158.641 87.4329 159.075 87.1068C160.927 86.0213 163.094 84.6661 165.588 83.0379L172.091 78.6418C172.753 78.208 173.942 77.3935 175.671 76.1994L177.792 74.8953L180.062 73.4299C183.642 70.9334 186.629 69.195 189.019 68.218L189.01 68.2182ZM172.894 68.8728L169.158 71.1491L165.579 73.4301C164.171 74.2985 162.215 75.3856 159.721 76.6882L156.63 78.3148L153.374 79.9413C148.065 82.655 144.205 85.2601 141.815 87.7567L139.223 88.4108L136.456 89.2218C144.693 82.4919 152.773 76.9034 160.689 72.453C161.256 72.1274 161.544 71.6389 161.676 70.9876C165.908 70.1192 169.644 69.4153 172.894 68.8725V68.8728ZM261.905 70.1721C263.312 70.932 265.331 71.6934 267.929 72.4533L271.019 73.269L273.787 74.0798C275.308 74.6226 276.981 75.384 278.823 76.3609L283.547 78.9643C287.561 81.3523 290.769 82.9279 293.15 83.6878C293.905 83.9052 294.567 83.7445 295.105 83.1991L293.795 87.9225L292.67 92.3187C291.584 90.2563 289.354 88.628 285.991 87.434L283.869 86.6183L281.757 85.9689C280.132 85.4264 278.828 84.8802 277.855 84.3375C272.102 81.1897 266.621 78.2589 261.416 75.5452L260.946 75.0568L261.905 70.1721ZM423.156 71.9648C424.139 72.5075 425.433 72.996 427.068 73.4301L423.156 76.1997L419.088 78.9644C415.725 81.1353 413.126 82.9839 411.275 84.5036C409.98 85.4805 408.403 86.8883 406.561 88.7336L404.125 91.1759L401.515 93.457C397.396 97.2561 393.819 99.6458 390.777 100.623C389.69 100.949 389.206 101.705 389.31 102.899C389.499 104.093 390.161 104.692 391.266 104.692H391.736C392.303 104.692 392.725 104.529 393.046 104.203C395.871 103.009 399.069 100.782 402.649 97.5257L407.04 93.2955C408.778 91.6673 410.241 90.4175 411.431 89.5491C413.708 87.7038 417.127 85.2089 421.68 82.061L426.892 78.4757L432.095 74.7341L435.029 75.3837L437.796 76.0334C439.855 76.4677 441.265 76.7932 442.021 77.0104L454.226 81.5726C453.375 81.2465 452.599 81.3524 451.947 81.8949C449.236 84.5 445.659 87.268 441.209 90.1986L435.195 93.9452L429.162 97.5255C419.404 103.713 412.742 109.847 409.162 115.926L408.968 116.575C406.257 115.273 403.217 113.644 399.854 111.691C402.027 109.194 405.331 106.426 409.78 103.387L415.306 99.6451C417.478 98.2341 419.214 97.0368 420.518 96.0599L425.407 92.1522L430.278 88.4106C434.075 85.5884 437.556 83.3617 440.702 81.7334C441.269 81.516 441.548 81.1378 441.671 80.5953C441.765 80.0527 441.675 79.564 441.486 79.1299C441.203 78.5873 440.824 78.2613 440.342 78.153C439.775 77.9359 439.204 77.9359 438.553 78.153C435.294 79.8897 431.496 82.4373 427.16 85.8023L421.625 90.0372C419.566 91.6654 417.724 93.0206 416.099 94.1061L411.044 97.6913L405.684 101.272C401.67 104.203 398.524 107.023 396.247 109.737C391.363 106.806 386.755 103.875 382.419 100.945L392.502 93.7837C396.734 90.8529 400.1 88.4107 402.594 86.4568L406.016 83.6872L409.586 80.9176C412.411 78.7467 414.799 77.0133 416.745 75.7107L418.212 74.8949L419.678 74.0793C420.973 73.428 422.004 72.8342 422.769 72.2915L423.156 71.9648ZM151.096 73.4301C143.18 78.5319 135.09 84.7716 126.852 92.1528L123.928 92.9685L124.897 92.1528L125.746 91.3418C128.022 89.388 130.693 87.1611 133.725 84.6645L142.027 78.3146C142.878 77.5548 142.968 76.7407 142.212 75.8723L151.096 73.4301ZM136.456 77.499L129.454 82.8721C126.96 84.8259 124.73 86.6744 122.784 88.4112C120.394 90.5821 117.575 93.2925 114.316 96.5489C109.649 98.3942 105.041 100.243 100.488 102.088L106.346 96.0604L107.969 94.2728L109.768 92.3189C111.393 90.6907 112.75 89.3881 113.827 88.4112C117.086 85.1548 119.958 82.9806 122.461 81.8952C126.797 80.3756 131.459 78.9102 136.456 77.499V77.499ZM259.949 79.2917L266.462 82.5497C268.956 83.8523 271.027 84.992 272.652 85.9689C275.58 87.7057 277.854 88.9506 279.478 89.7105C279.951 89.9279 280.723 90.2011 281.923 90.5262L283.224 91.0149L284.681 91.5036C287.071 92.3723 288.596 93.3489 289.248 94.4344C289.531 94.9769 290.001 95.303 290.539 95.4112C291.106 95.52 291.571 95.3546 292.006 94.9226V95.0833C291.156 98.3397 290.159 102.41 289.072 107.295L288.796 107.134C286.736 106.483 284.022 104.965 280.659 102.577L276.748 99.646C275.236 98.5605 273.879 97.7464 272.689 97.2037C271.839 96.7698 270.674 96.2811 269.266 95.7383L265.364 94.2729C262.001 92.9703 259.455 91.8306 257.717 90.8537C258.567 86.6204 259.344 82.7654 259.995 79.2919L259.949 79.2917ZM188.521 81.2455C188.332 84.2848 188.233 88.0297 188.327 92.4801C186.051 93.1313 183.284 94.4339 180.025 96.3878L176.123 98.8301C174.498 99.9155 173.256 100.677 172.387 101.111C162.185 106.973 153.831 112.183 147.323 116.742V114.3C147.323 113.214 147.327 111.691 147.138 109.737L146.852 104.692C147.513 105.343 148.156 105.558 148.808 105.341C152.067 104.147 155.908 101.867 160.357 98.5025L165.892 94.2725C168.169 92.6442 170.02 91.3417 171.427 90.3648C173.704 88.845 176.524 87.2169 179.886 85.4801L184.277 83.3603L188.521 81.2455ZM454.235 81.5726L462.205 84.6645C459.494 87.0525 456.084 89.8731 451.956 93.1295L446.597 97.2032L441.219 101.111C436.769 104.693 433.192 107.624 430.481 109.903C429.82 110.554 429.009 111.369 428.036 112.345L425.601 114.949C423.532 117.12 421.691 118.533 420.066 119.184C418.98 119.509 418.504 120.266 418.608 121.46L412.418 118.368L412.704 118.041C414.764 114.568 418.015 111.148 422.464 107.784L425.398 105.668L428.322 103.715C430.92 101.978 432.876 100.623 434.18 99.6458C435.587 98.5603 437.314 97.363 439.383 96.0604L444.752 92.4801C449.088 89.6579 452.463 87.1053 454.844 84.8258C455.41 84.2833 455.598 83.6894 455.314 83.0382C455.22 82.3869 454.841 81.8984 454.17 81.5728L454.235 81.5726ZM110.903 85.8026L109.113 87.7565L107.333 89.3879C105.377 91.3418 102.548 94.1624 98.8642 97.8529L94.796 102.088L90.5618 106.318L81.4568 110.064L90.2389 102.249C93.4884 99.2098 96.3176 96.4944 98.6981 94.1064C99.3594 93.4551 99.542 92.8038 99.3531 92.1526C99.1642 91.5013 98.6945 91.0128 98.0616 90.6872L110.903 85.8026ZM465.784 86.1297L476.531 90.5257H476.338C469.291 94.3249 461.527 100.024 453.073 107.622L447.694 112.506L442.335 117.552C437.668 121.894 434.091 125.15 431.597 127.321L421.662 122.764C423.4 122.004 425.567 120.376 428.175 117.879C431.103 114.949 435.28 111.314 440.711 106.972L446.883 102.249L453.073 97.5254C458.06 93.6178 462.079 90.3088 465.111 87.5951C465.583 87.1613 465.766 86.6725 465.766 86.1297H465.784ZM479.299 91.6639L488.238 95.5716L492.638 97.3642L496.863 99.3181L505.821 103.226C512.867 106.265 518.886 109.086 523.883 111.691L523.219 112.179C517.249 118.041 509.768 124.448 500.765 131.395L495.719 134.976L490.516 138.722C486.388 141.653 483.243 144.311 481.079 146.699L468.875 142.142L470.498 140.998L471.965 139.86C473.155 139.1 473.966 138.449 474.401 137.907C475.704 136.604 477.387 134.976 479.447 133.022L484.649 128.299L490.184 122.926L495.719 117.552L498.653 115.11L501.743 112.668C504.454 110.714 506.411 108.981 507.601 107.461C508.073 107.027 508.166 106.481 508.071 105.829C508.071 105.396 507.88 104.965 507.407 104.53C506.935 104.096 506.56 103.876 506.106 103.876C505.54 103.876 505.074 104.096 504.64 104.53C503.449 106.05 501.555 107.783 498.948 109.737L495.692 112.179C494.501 113.156 493.523 113.97 492.767 114.622L489.188 118.041L485.766 121.626C482.837 124.448 480.459 126.67 478.607 128.299L475.517 131.068L472.592 134.16C470.099 136.548 467.984 138.286 466.246 139.372L465.259 139.861L464.41 140.349L452.86 135.953C454.806 133.891 457.406 131.501 460.655 128.787L464.733 125.368L468.469 122.115C472.814 118.533 476.497 115.602 479.539 113.323C483.771 110.175 487.736 107.675 491.42 105.83C492.611 105.179 492.822 104.259 492.075 103.065C491.414 101.871 490.508 101.598 489.308 102.249C483.017 105.506 475.104 111.205 465.554 119.346L461.32 122.765L457.095 126.511C453.732 129.442 450.965 132.047 448.792 134.327L435.776 128.954L440.822 124.391L445.868 119.673C450.317 115.548 453.736 112.397 456.117 110.226C464.25 103.17 471.678 97.7975 478.404 94.1068C479.377 93.5643 479.659 92.75 479.262 91.6646L479.299 91.6639ZM95.2849 91.8303C92.3565 94.6526 88.3382 98.3974 83.2372 103.065L77.0657 108.438L71.0327 113.972C68.2082 115.058 65.2393 116.25 62.0937 117.553C62.755 116.793 63.6615 115.816 64.8612 114.622L66.3187 113.156L67.6194 111.691C68.923 110.063 70.6589 108.219 72.8315 106.157L73.4957 105.507L74.1507 104.852L75.6174 103.387C76.8077 102.302 77.8387 101.65 78.7078 101.433C79.5579 101.216 80.0612 100.727 80.1745 99.9678C80.269 99.2079 80.0771 98.5567 79.5103 98.014L95.2849 91.8303ZM256.868 94.9222C258.493 95.7909 260.881 96.8202 264.027 98.0142L267.431 99.3184C268.63 99.8609 269.661 100.35 270.53 100.784C271.824 101.435 273.287 102.302 274.921 103.387L278.999 106.318C282.466 108.815 285.338 110.39 287.615 111.041L288.27 111.202L285.991 121.46C285.018 121.242 283.925 120.486 282.735 119.184L281.434 117.391L280.133 115.926C277.961 113.755 275.635 111.748 273.141 109.903C269.995 107.623 265.157 105.344 258.649 103.064C258.365 102.087 257.675 101.599 256.702 101.599H255.558C255.653 100.839 255.845 99.8047 256.222 98.5022L256.508 96.8756L256.868 94.9222ZM138.9 96.8761C138.806 98.8299 138.806 101.272 138.9 104.203L139.085 107.949V111.369L139.278 117.064L139.564 122.926C139.848 127.81 140.03 131.613 139.841 134.326V134.815C139.841 135.792 140.123 136.606 140.69 137.257C138.734 138.343 135.809 139.588 131.899 140.999C130.708 141.433 129.246 141.921 127.507 142.464L125.718 142.953C125.057 143.17 124.634 143.333 124.417 143.442C120.733 144.636 115.693 145.723 109.288 146.7L101.641 147.838C98.7031 148.38 96.1566 148.926 93.9934 149.469C91.2823 150.12 87.6427 151.203 83.0896 152.722L77.2318 154.676L71.2171 156.63C61.4497 159.669 53.5805 161.298 47.6199 161.515C45.8817 160.321 44.3571 160.594 43.0535 162.33L42.5831 162.98L42.2971 163.468C40.4551 164.011 39.5389 165.314 39.5389 167.376C39.4444 169.547 40.3942 170.849 42.4724 171.284C47.3467 172.369 54.0267 175.195 62.4812 179.754L67.5272 182.357L72.564 185.127C76.3614 187.08 79.6126 188.546 82.3331 189.523C85.696 190.825 90.0312 192.07 95.3495 193.264L102.508 194.896L109.667 196.522C121.711 199.128 130.601 202.168 136.354 205.642C135.693 206.619 135.51 207.596 135.699 208.573C133.857 215.737 133.689 225.07 135.229 236.576L103.652 221.273L71.9275 205.803C69.4336 204.609 66.1293 203.196 62.0107 201.568L56.6326 199.292L50.9316 197.011C41.2775 193.103 33.7435 189.574 28.3214 186.426C11.8376 176.657 5.05213 164.608 7.98048 150.28C9.8225 149.737 12.105 148.708 14.8161 147.188L17.8972 145.234L21.1629 143.608C27.3502 140.351 35.2629 136.769 44.917 132.862L57.2876 128.138L63.4682 125.857L69.4921 123.415C73.5068 121.787 79.7892 119.181 88.357 115.599L97.9601 111.53L107.729 107.462C108.485 107.788 109.19 107.677 109.842 107.135L110.312 106.485C121.27 102.252 130.813 99.0481 138.956 96.8772L138.9 96.8761ZM188.364 96.8761V101.433C188.364 102.302 188.643 103.116 189.333 103.876C188.577 104.31 187.766 105.124 186.897 106.318L186.611 106.807L183.364 108.599L179.942 110.226C179.469 109.249 178.75 108.871 177.663 109.088C176.577 109.414 175.388 110.012 174.084 110.88L172.46 112.019L170.837 113.157C166.388 115.979 162.643 118.153 159.601 119.673L158.3 120.322L156.833 120.971C155.426 121.623 154.342 122.111 153.577 122.437C150.866 123.848 148.981 125.261 147.894 126.672L147.609 121.46L148.457 121.138C155.183 116.253 162.999 111.258 171.898 106.157C172.871 105.614 174.175 104.852 175.8 103.875L179.868 101.272C183.335 99.101 186.217 97.6356 188.493 96.8758L188.364 96.8761ZM71.8537 101.111C71.098 101.871 70.1633 102.848 69.077 104.042L67.7855 105.341L66.6416 106.645L63.7173 109.737L60.9498 112.834C60.0997 113.594 59.1648 114.786 58.1824 116.414L56.8724 118.207L55.4149 119.995L55.1289 120.649L48.6254 123.414L41.9558 126.183C46.5089 120.213 51.9809 113.916 58.3761 107.294C61.8523 105.449 66.3645 103.39 71.8906 101.111L71.8537 101.111ZM254.746 105.996L254.94 106.156C263.839 109.196 270.552 112.778 275.115 116.902C275.682 117.445 276.421 118.207 277.394 119.184L279.672 121.787C281.524 123.849 283.25 125.099 284.875 125.533H285.152L283.205 133.998C282.015 132.479 280.217 130.903 277.836 129.275C276.986 128.624 275.989 127.973 274.903 127.321L273.445 126.51L272.135 125.856L267.099 123.253L262.209 120.972C257.874 119.018 254.569 117.39 252.293 116.087L254.396 107.295C254.396 107.077 254.493 106.646 254.682 105.995L254.746 105.996ZM381.174 110.064C400.916 123.416 420.822 133.889 440.896 141.487C445.553 143.224 451.686 145.451 459.281 148.164L477.675 154.675C491.996 159.994 504.023 164.989 513.791 169.657C514.074 169.874 514.453 170.089 514.925 170.306V175.19L515.119 180.241V199.452C513.173 199.886 512.08 201.079 511.863 203.033C501.236 206.723 488.599 210.904 473.958 215.571L454.918 221.433L435.877 227.294C432.297 228.38 428.288 229.682 423.839 231.202L411.8 235.437C401.929 239.019 393.901 241.624 387.714 243.252C383.378 244.446 381.158 245.04 381.045 245.04C380.761 244.931 380.388 242.384 380.076 237.391C380.076 236.631 379.979 235.654 379.79 234.46L379.319 231.202C378.847 228.271 378.655 226.045 378.655 224.525L381.266 223.548L383.867 222.249C386.031 221.272 387.608 220.62 388.581 220.295L405.5 215.244C412.008 213.29 417.657 211.557 422.427 210.037C425.677 208.952 430.462 207.539 436.754 205.802L444.392 203.687L452.039 201.567C464.301 197.877 473.465 193.701 479.539 189.033L479.825 188.867L480.018 189.033C482.399 190.227 484.241 189.629 485.544 187.241C486.961 184.961 486.486 183.17 484.077 181.868C479.194 179.263 473.396 176.332 466.67 173.075L466.476 172.748L466.006 172.426C465.156 171.666 464.168 171.283 463.082 171.283C437.265 158.8 410.635 147.786 383.194 138.234L383 135.792L382.714 133.183C382.431 131.121 382.244 129.55 382.244 128.465C382.338 125.86 382.248 122.766 382.059 119.184L381.174 110.064ZM526.65 112.995L530.396 115.11L534.289 117.064C531.908 118.475 529.203 120.865 526.161 124.23L522.582 128.465C521.175 129.984 519.976 131.229 519.003 132.206C517.161 133.943 514.763 135.954 511.835 138.234L508.099 140.999L504.354 143.768C503.787 144.202 502.995 144.906 501.909 145.883L499.151 148.164C496.874 150.01 494.918 151.097 493.293 151.422L493.016 151.583L485.203 148.325C487.479 146.154 490.678 143.606 494.797 140.676L499.843 137.257C501.798 135.845 503.419 134.648 504.723 133.671C513.621 126.616 520.785 120.429 526.208 115.11C526.774 114.459 526.961 113.755 526.678 112.995L526.65 112.995ZM45.4981 115.11C41.918 119.452 38.384 124.069 34.9172 128.953L33.7825 129.442C32.2617 129.984 29.4326 131.34 25.3141 133.511L22.7126 134.976L20.1112 136.441C18.0425 137.527 16.254 138.451 14.7331 139.211C17.7748 135.086 22.7094 130.633 29.5391 125.857L33.7825 122.926L38.0167 120.161C41.7008 117.773 44.1945 116.087 45.4981 115.11V115.11ZM538.366 119.506C541.398 121.352 544.007 123.037 546.179 124.557C543.468 126.077 540.481 128.299 537.222 131.229C536.145 132.206 534.788 133.404 533.163 134.815L531.364 136.602L529.575 138.234L519.003 148.164C514.771 152.181 511.299 155.547 508.588 158.261L498.007 153.699L499.963 152.233L501.909 150.768C505.707 147.946 510.967 143.875 517.693 138.556C519.11 137.362 520.625 135.954 522.259 134.326L524.363 132.206L526.493 129.93L527.785 128.626L529.086 127.161C530.276 125.967 531.264 124.99 532.019 124.23C534.409 121.842 536.462 120.324 538.2 119.672L538.366 119.506ZM251.333 120.483C254.479 122.22 258.488 124.174 263.372 126.345L265.807 127.488L268.086 128.465C269.928 129.333 271.462 130.2 272.652 131.068L273.621 131.557L274.765 132.373C275.841 133.024 276.714 133.565 277.366 133.999C279.321 135.41 280.449 136.66 280.779 137.746C280.968 138.397 281.447 138.828 282.089 139.045L280.29 145.561C279.535 145.018 278.451 144.42 277.043 143.768L275.244 143.119L273.621 142.464C271.882 141.704 269.821 140.727 267.431 139.533L261.582 136.28C260.921 135.955 260.014 135.571 258.815 135.137L255.558 133.838C252.743 132.861 250.839 131.937 249.867 131.068L249.018 130.58L251.333 120.483ZM549.759 127.322L552.194 129.114L554.473 131.068C553.386 131.828 552.576 132.589 552.037 133.349C551.282 133.674 550.629 134.106 550.082 134.649L549.602 135.137L549.131 135.626C548.848 136.06 548.566 136.28 548.283 136.28C546.337 136.823 545.358 138.125 545.358 140.188L542.914 142.464L540.322 144.418L538.366 145.722L536.41 147.026C534.785 148.112 533.481 149.089 532.508 149.957L529.252 153.049L525.986 156.307C523.275 159.021 520.958 161.027 519.003 162.33H518.809L518.145 162.49L517.868 162.657L512.656 160.048L520.313 152.721L528.126 145.561L530.405 143.279L532.84 140.837C535.117 138.558 536.853 136.819 538.043 135.625C542.388 131.609 546.292 128.841 549.768 127.322L549.759 127.322ZM248.243 134.815C248.999 135.357 250.399 136.009 252.468 136.769C255.717 137.963 259.515 139.754 263.861 142.142L267.274 143.929L270.53 145.561L271.508 146.05L272.652 146.372C273.738 146.806 274.592 147.132 275.244 147.349C277.303 148.217 278.608 149.194 279.156 150.279L277.698 155.491L270.853 152.561C268.255 151.475 265.92 150.608 263.861 149.957C256.804 147.569 251.059 144.906 246.61 141.976L248.243 134.815ZM558.864 138.234V150.934C556.804 152.453 554.416 154.082 551.705 155.818L544.556 160.376C541.949 161.895 538.362 164.228 533.809 167.375L528.44 171.122L522.905 174.702C522.905 172.531 522.901 170.798 523.09 169.495C525.158 168.084 527.537 166.13 530.248 163.634L533.67 160.376L536.927 157.284C538.013 156.198 539.529 155.001 541.484 153.699L543.919 152.072L546.207 150.445C547.293 149.577 548.641 148.38 550.266 146.86L552.222 144.906L554.334 143.28C555.184 142.52 555.644 141.653 555.644 140.676H555.829H556.115C556.209 140.568 556.401 140.457 556.779 140.349C557.062 140.132 557.436 139.807 557.747 139.372L558.218 138.884L558.504 138.557L558.864 138.234ZM245.798 146.21C250.238 149.033 255.235 151.365 260.77 153.21C263.047 153.97 265.708 154.947 268.741 156.141L276.554 159.56L274.921 165.099L273.141 164.122L267.763 162.002L262.403 160.048L259.304 159.072L256.213 158.261C256.119 158.261 255.649 158.15 254.913 157.934L253.778 157.607L252.634 157.118C250.679 156.575 249.7 156.413 249.7 156.629C249.606 155.978 249.324 155.547 248.852 155.33C248.379 155.112 247.914 155.055 247.394 155.163C246.827 155.272 246.405 155.545 246.084 155.979C245.801 156.522 245.609 157.063 245.798 157.606L245.992 158.26C246.087 158.911 246.561 159.4 247.459 159.725C254.506 161.679 260.198 163.575 264.534 165.421L266.813 166.236L269.1 167.052C271.046 167.812 272.624 168.463 273.814 169.006L270.724 180.241C261.712 177.961 252.064 173.182 241.758 165.909L243.704 156.628L245.798 146.21ZM109.925 155.003C109.736 155.98 109.833 156.904 110.211 157.772L110.875 159.072V159.238C107.947 161.3 105.559 163.144 103.707 164.772C102.952 165.532 101.762 166.835 100.137 168.68L98.1815 170.795L96.2258 172.915C92.863 176.28 89.8227 178.339 87.1116 179.099C86.4504 179.207 86.0374 179.59 85.8202 180.242C85.6312 180.893 85.636 181.487 86.0139 182.029L80.9679 179.914C81.2512 179.046 82.2674 177.959 83.8922 176.656L85.036 175.845L85.8847 175.191C86.6404 174.649 87.1342 174.218 87.3515 173.892C90.3837 170.636 92.834 168.083 94.6761 166.238L97.4435 163.634L100.368 161.192C102.748 159.021 104.599 157.23 105.903 155.819L109.925 155.003ZM558.864 155.98V156.629C558.297 157.172 557.918 157.77 557.729 158.422C557.257 159.724 556.211 161.463 554.473 163.634C553.811 164.502 553.063 165.421 552.194 166.398L551.216 167.541L550.368 168.518L549.897 169.007L543.55 173.076L537.37 177.311C535.632 178.505 533.085 180.511 529.722 183.333C529.533 183.551 529.155 183.929 528.578 184.471L527.73 185.126L526.881 185.937C525.37 187.348 524.109 188.435 523.136 189.195V182.845V179.264L523.606 179.098C526.534 177.252 530.773 174.485 536.3 170.794L542.646 166.398L548.993 162.329C553.008 159.832 556.259 157.716 558.753 155.979L558.864 155.98ZM98.2184 157.606L92.9971 162.168C90.9378 163.905 89.3166 165.423 88.1264 166.726L84.0582 170.961C82.4334 172.589 81.0142 173.944 79.824 175.03C78.6337 176.115 77.8231 177.145 77.3886 178.122L71.2079 175.03L72.1765 174.053L73.0345 173.076C73.2234 172.858 73.5005 172.696 73.6894 172.587V172.426H73.8831L76.9735 169.329L80.0638 166.238L82.3424 163.956L84.6209 161.68C89.8258 159.943 94.3815 158.583 98.2922 157.607L98.2184 157.606ZM117.083 160.048C119.908 160.374 123.265 161.246 127.175 162.657C125.551 163.526 123.594 164.88 121.318 166.726L118.716 168.841L116.115 170.795L112.203 173.891L108.301 177.145C104.938 179.858 102.277 181.922 100.331 183.333C99.4808 183.985 99.2416 184.851 99.6667 185.937C96.5211 185.177 93.9747 184.583 92.0193 184.149L90.2297 183.495L88.44 182.846C90.7166 182.303 93.1576 180.89 95.7554 178.611C96.6055 177.851 97.6553 176.874 98.8549 175.68L100.322 174.053L101.788 172.749C105.151 169.276 110.244 165.042 117.074 160.049L117.083 160.048ZM76.2447 164.122L74.2983 166.076L72.1765 167.864C70.6557 169.384 69.4134 170.686 68.4405 171.772L67.2966 172.915C63.8298 171.069 61.0008 169.604 58.8281 168.518C63.4946 167.65 69.3017 166.185 76.2447 164.122ZM132.378 164.611C134.003 165.371 136.233 166.4 139.057 167.703C137.971 168.463 136.729 169.492 135.312 170.795L133.522 172.426L131.889 173.892L129.611 175.845L127.341 177.799C125.395 179.536 123.818 180.944 122.627 182.029C118.717 185.177 115.245 187.351 112.203 188.545L102.942 186.592C107.381 183.335 111.611 180.021 115.626 176.656L119.694 173.564L123.753 170.634L125.875 169.007L127.83 167.376C129.568 166.073 131.075 165.154 132.378 164.611V164.611ZM143.448 169.657C144.742 170.308 145.835 170.796 146.704 171.122L150.441 172.749C148.06 174.268 145.125 176.385 141.658 179.099L137.267 182.196L133.033 185.615L131.41 186.914L129.786 188.545C128.482 189.739 127.284 190.443 126.198 190.661C125.536 190.769 125.114 191.205 124.897 191.965L118.061 190.011C119.365 189.142 120.889 188.055 122.627 186.753L124.731 184.96L126.852 183.334C129.45 181.271 132.385 178.882 135.644 176.168C135.833 175.951 136.393 175.463 137.101 174.703L138.079 173.892L139.057 172.915C140.899 171.286 142.362 170.199 143.448 169.657V169.657ZM240.752 170.145C250.954 177.309 260.55 181.979 269.552 184.15L266.619 194.241L264.839 192.942L263.04 191.638C261.963 190.986 260.605 190.282 258.981 189.523L254.59 187.569C254.495 187.569 254.113 187.458 253.603 187.242C253.036 186.916 252.412 186.59 251.656 186.265C249.814 185.288 248.078 184.364 246.444 183.495C241.456 180.999 239.068 179.643 239.286 179.426C239.947 178.558 239.85 177.744 239 176.984L240.752 170.145ZM154.832 174.542L162.156 177.634C161.079 178.828 159.396 180.24 157.119 181.868L154.352 183.822L151.584 185.776L148.974 188.218L146.206 190.661C144.034 192.506 141.928 193.646 139.86 194.08C139.293 194.189 138.914 194.514 138.725 195.057C138.347 195.491 138.352 195.979 138.54 196.522C138.635 197.065 138.917 197.501 139.389 197.826C139.861 198.153 140.361 198.258 141.013 198.149C142.968 197.715 144.925 196.795 146.871 195.384L149.315 193.264L151.76 191.149C152.742 190.28 153.869 189.356 155.173 188.38L158.752 185.937C161.681 183.766 163.848 181.923 165.265 180.403C165.548 180.078 165.735 179.641 165.735 179.099L171.75 181.707L170.293 182.845L168.826 183.983C167.418 184.852 165.303 186.049 162.479 187.569L159.223 189.356L155.966 191.149L152.719 193.103L149.297 195.057C146.472 196.794 144.146 198.369 142.304 199.78C138.941 197.501 134.817 195.437 129.934 193.592C131.237 192.94 132.867 191.748 134.823 190.011L137.092 187.891C137.942 187.131 138.666 186.538 139.214 186.103L144.574 182.03L149.952 177.961L151.086 177.145L152.23 176.334L154.832 174.542ZM458.81 179.162C459.377 179.172 459.905 179.21 460.425 179.264L465.96 181.868L471.319 184.638C467.635 186.809 462.974 188.925 457.334 190.987L457.999 189.844L458.847 188.545C459.414 187.46 459.87 186.914 460.305 186.914C461.599 186.805 462.251 186.049 462.251 184.638C462.251 183.226 461.59 182.628 460.305 182.845C458.349 183.062 456.561 184.58 454.936 187.402C454.464 188.162 453.849 189.139 452.99 190.333L450.877 193.264L444.355 195.218C445.659 193.481 446.699 191.853 447.455 190.333C448.428 188.379 449.512 186.646 450.702 185.126C450.891 184.909 451.173 184.526 451.55 183.983C452.023 183.766 452.311 183.498 452.537 183.172C453.199 182.195 453.481 181.161 453.386 180.075V179.915L453.192 179.587C455.308 179.262 457.212 179.121 458.903 179.162L458.81 179.162ZM448.543 180.403L448.257 181.052C447.974 181.704 447.308 182.575 446.468 183.661L445.619 184.799L444.65 186.264C442.695 190.172 440.307 193.754 437.482 197.01L430.822 198.803C432.012 196.849 433.202 195.221 434.401 193.918C437.216 190.662 439.816 187.08 442.206 183.172C442.489 182.738 442.588 182.25 442.399 181.707L445.49 181.053L448.543 180.403ZM539.501 180.73L534.289 186.425L529.252 192.126C528.968 192.343 528.489 192.779 527.951 193.43L526.493 195.057C525.294 196.359 524.201 197.446 523.228 198.315V194.407C525.183 193.321 527.571 191.42 530.396 188.707L533.643 185.615C534.946 184.421 536.03 183.444 536.899 182.684L539.501 180.73ZM437.971 182.196C436.772 183.932 435.362 185.886 433.737 188.057L431.459 190.822L429.171 193.752C427.763 195.489 426.301 197.769 424.78 200.591L421.21 201.568L417.787 202.711C419.308 199.997 420.603 197.933 421.689 196.522L423.488 193.591L425.269 190.661L426.413 189.034L427.713 187.569C428.696 186.375 429.4 185.34 429.835 184.472C430.118 183.82 430.118 183.169 429.835 182.518L433.737 182.357L437.971 182.196ZM237.339 182.684C238.851 184.204 240.966 185.669 243.677 187.08L247.256 188.868L250.835 190.333L253.446 191.476L256.047 192.615C258.003 193.591 259.624 194.458 260.927 195.218L263.206 196.683L265.493 198.315L263.04 206.453H262.855C260.248 206.127 257.27 204.772 253.907 202.384C252.821 201.515 251.464 200.376 249.839 198.965L248.04 197.338L246.26 195.873C246.071 195.764 245.688 195.544 245.273 195.218L244.138 194.08C242.948 193.212 241.969 192.451 241.214 191.799C238.606 189.845 236.703 188.763 235.513 188.546L235.706 187.892C235.895 187.566 235.992 187.188 235.992 186.754L237.339 182.684ZM425.924 183.007L424.955 184.638L423.645 186.103C422.559 187.406 421.81 188.488 421.376 189.356C420.809 190.333 419.965 191.636 418.765 193.264L416.164 197.011L413.885 200.918L411.607 204.826L402.502 207.757L406.404 201.734L410.472 195.706C413.504 191.147 416.43 187.35 419.254 184.311C421.096 183.659 423.326 183.224 425.924 183.007V183.007ZM175.984 188.546C175.984 189.414 176.081 190.769 176.27 192.614C175.703 192.723 175.3 193.101 174.97 193.753C174.403 194.729 173.021 195.869 170.745 197.172L169.435 197.988L168.134 198.803C167.048 199.346 166.29 199.777 165.855 200.103L160.486 203.522L155.118 206.941L153.651 207.757L152.018 208.734C150.497 209.602 149.308 210.306 148.439 210.849C145.728 212.803 144.222 214.756 143.891 216.71C143.796 217.361 143.889 217.908 144.361 218.342C144.645 218.776 145.114 219.102 145.653 219.319C146.22 219.427 146.632 219.366 146.954 219.152C147.52 218.935 147.808 218.504 147.941 217.853C148.035 216.659 149.234 215.356 151.52 213.945C152.181 213.403 153.088 212.804 154.287 212.153L155.422 211.503L156.391 211.015L166.16 204.826C166.727 204.392 167.509 203.903 168.595 203.36L171.363 201.734C173.753 200.323 175.541 199.073 176.741 197.987L176.934 202.545V207.107C175.518 207.867 173.949 208.844 172.221 210.038L167.654 213.13C163.753 215.735 160.554 217.636 158.06 218.83L154.158 220.618C152.637 221.378 151.333 222.139 150.247 222.899L148.448 224.203L146.668 225.829C145.147 227.023 143.843 227.89 142.756 228.433C142.189 219.966 142.568 213.564 143.9 209.222C144.561 208.571 145.574 207.757 146.981 206.78L148.78 205.641C149.536 205.208 150.082 204.824 150.404 204.499C153.115 202.436 157.028 199.941 162.119 197.01L166.999 194.241L171.888 191.637C172.361 191.42 172.913 190.984 173.678 190.333L174.813 189.522L175.984 188.546ZM410.472 188.546C408.62 191.042 406.242 194.567 403.313 199.126L399.891 204.499L396.312 209.872L394.033 210.527C392.947 210.852 389.581 211.935 383.941 213.78L390.122 207.108L396.312 200.43C401.299 195.329 406.023 191.368 410.472 188.546V188.546ZM234.24 192.614C235.09 193.374 236.413 194.299 238.151 195.384L240.107 196.522L241.73 197.66L244.009 199.453L246.444 201.407C248.513 203.143 250.081 204.393 251.167 205.153C255.078 208.084 258.646 209.818 261.905 210.36L259.636 217.853L257.182 225.18C257.371 224.529 257.375 223.878 256.997 223.226C256.525 222.684 256.026 222.358 255.374 222.249C254.287 222.141 253.098 221.595 251.795 220.618L250.328 219.319L248.704 218.014L244.636 215.411L240.402 212.803L235.033 209.383L229.655 205.964L234.24 192.614ZM228.382 210.038L233.76 213.457L239.286 216.876C240.268 217.419 241.51 218.286 243.031 219.48L244.977 221.106L246.933 222.572C250.192 224.851 253.012 226.101 255.401 226.318C256.252 226.427 256.861 226.101 257.182 225.341L255.401 231.042L254.553 230.553C251.407 229.033 247.873 227.458 243.972 225.829H243.778L243.594 225.669L243.123 225.502C242.462 225.177 241.757 224.909 241.001 224.691C238.942 223.715 236.986 222.843 235.144 222.083C229.504 219.587 226.737 218.179 226.841 217.853C227.313 216.876 227.126 216.004 226.371 215.245L228.382 210.038ZM177.128 211.826L177.599 215.084L173.364 219.152L168.973 223.06C165.61 226.1 162.632 228.436 160.034 230.065L155.8 232.507L151.723 234.783C148.691 236.628 146.144 238.314 144.075 239.834C143.603 237.554 143.324 235.165 143.107 232.668C144.297 232.342 145.813 231.476 147.655 230.065C152.321 226.591 156.339 224.091 159.702 222.572C162.196 221.486 165.174 219.753 168.641 217.365L172.876 214.595L177.128 211.826ZM224.314 221.106C225.296 221.866 226.653 222.68 228.382 223.549L230.503 224.526L231.472 224.853L232.459 225.18C238.968 228.002 244.228 230.334 248.243 232.179L251.01 233.645L253.935 235.271L252.468 239.667L250.835 243.902C250.552 243.685 250.178 243.522 249.867 243.414C247.373 243.305 244.5 242.328 241.241 240.483C240.155 239.832 238.851 238.965 237.339 237.879L235.383 236.736L233.585 235.437L230.66 233.644L227.736 231.852C225.242 230.441 223.286 229.196 221.878 228.11L224.314 221.106ZM220.411 232.18C222.367 233.591 224.745 235.166 227.57 236.903L234.894 241.622C237.171 243.033 239.506 244.283 241.896 245.368C244.825 246.671 247.371 247.375 249.544 247.483L246.121 256.603L245.466 255.626L244.608 254.81C244.136 254.267 243.857 253.889 243.63 253.672C241.902 252.152 239.408 250.577 236.149 248.949C235.582 248.622 234.959 248.297 234.193 247.972L233.059 247.483L231.758 246.994C229.481 246.017 227.64 245.203 226.232 244.552C221.783 242.164 219.333 239.779 218.899 237.391L218.714 236.903L220.411 232.18ZM220.882 245.857C222.393 246.834 224.35 247.863 226.74 248.948L229.664 250.414C230.75 250.848 231.57 251.231 232.109 251.557C236.671 253.728 240.733 256.764 244.313 260.672L244.498 260.838L242.21 266.533C237.118 263.06 232.289 258.774 227.736 253.672L224.147 249.765C222.853 248.353 221.769 247.051 220.9 245.857L220.882 245.857Z" fill="#00C8A0"/>
</svg>
